<?xml version="1.0" encoding="utf-8"?>
<!-- Generator: Adobe Illustrator 27.5.0, SVG Export Plug-In . SVG Version: 6.00 Build 0)  -->
<svg version="1.1" xmlns="http://www.w3.org/2000/svg" xmlns:xlink="http://www.w3.org/1999/xlink" x="0px" y="0px"
	 viewBox="0 0 750 500" style="enable-background:new 0 0 750 500;" xml:space="preserve">
<g id="Background_Complete">
	<g>
		<g>
			<polygon style="fill:#F5F5F5;" points="114.951,108.762 79.739,179.794 90.253,180.193 60.416,236.636 76.087,236.636 
				51.64,286.783 188.291,286.783 158.203,236.636 172.62,236.01 143.785,179.594 154.442,178.967 			"/>
			<g>
				<path style="fill:#E0E0E0;" d="M120.905,191.16c0.144,0.001-0.127,36.864-0.605,82.324c-0.478,45.476-0.982,82.328-1.126,82.327
					c-0.144-0.001,0.127-36.856,0.605-82.332C120.257,228.018,120.761,191.158,120.905,191.16z"/>
			</g>
		</g>
		<g>
			<path style="fill:#E0E0E0;" d="M120.196,256.23c-0.036,0.064-0.9-0.347-2.283-1.034c-1.551-0.769-3.38-1.676-5.401-2.678
				c-2.034-0.977-3.874-1.862-5.434-2.612c-1.392-0.667-2.248-1.096-2.219-1.164c0.027-0.064,0.935,0.245,2.368,0.827
				c1.434,0.582,3.391,1.445,5.514,2.48c2.122,1.036,4.006,2.049,5.346,2.821C119.428,255.644,120.23,256.169,120.196,256.23z"/>
		</g>
		<g>
			<path style="fill:#E0E0E0;" d="M137.075,202.701c0.03,0.02-0.16,0.354-0.528,0.941c-0.367,0.587-0.919,1.424-1.616,2.446
				c-1.394,2.046-3.388,4.826-5.694,7.818c-2.309,2.992-4.493,5.626-6.117,7.493c-0.812,0.934-1.481,1.68-1.956,2.184
				c-0.474,0.505-0.749,0.773-0.776,0.749s0.196-0.336,0.622-0.881c0.503-0.63,1.112-1.393,1.827-2.288
				c1.55-1.925,3.684-4.59,5.988-7.576c2.302-2.985,4.338-5.725,5.807-7.713c0.685-0.919,1.268-1.702,1.75-2.348
				C136.799,202.975,137.045,202.68,137.075,202.701z"/>
		</g>
	</g>
	<g>
		<path style="fill:#F5F5F5;" d="M680.339,293.986H424.227c-34.799,0-63.01-28.21-63.01-63.009v-90.829
			c0-34.799,28.21-63.01,63.01-63.01h209.11c34.799,0,63.01,28.21,63.01,63.01v137.831
			C696.347,286.819,689.18,293.986,680.339,293.986z"/>
		<path style="fill:#EBEBEB;" d="M427.493,293.986v-8.935c0-10.385,8.419-18.804,18.804-18.804h56.628v27.74H427.493z"/>
		<path style="fill:#E0E0E0;" d="M484.009,265.554c9.195,6.111,15.255,16.564,15.255,28.432c0,18.841-15.274,34.115-34.115,34.115
			c-18.841,0-34.114-15.274-34.114-34.115c0-11.415,5.607-21.521,14.216-27.714"/>
		<circle style="fill:#EBEBEB;" cx="466.959" cy="294.505" r="18.872"/>
		<rect x="547.814" y="119.305" style="fill:#E0E0E0;" width="72.758" height="174.682"/>
		<path style="fill:#E0E0E0;" d="M712.042,293.986h-57.084l0,0c0-7.66,6.21-13.87,13.87-13.87h43.214V293.986z"/>
		<path style="fill:#E0E0E0;" d="M405.905,293.986h-57.084l0,0c0-7.66,6.21-13.87,13.87-13.87h29.344
			C399.695,280.116,405.905,286.326,405.905,293.986L405.905,293.986z"/>
		<path style="fill:#E0E0E0;" d="M412.788,262.721h-31.883c-2.382,0-4.313-1.931-4.313-4.313v-1.502
			c0-2.382,1.931-4.313,4.313-4.313h31.883c2.382,0,4.313,1.931,4.313,4.313v1.502C417.101,260.79,415.17,262.721,412.788,262.721z"
			/>
		<path style="fill:#E0E0E0;" d="M411.703,102.034c1.014,1.014,1.014,2.658,0,3.672c-1.014,1.014-2.658,1.014-3.672,0
			c-1.014-1.014-1.014-2.658,0-3.672C409.046,101.02,410.69,101.02,411.703,102.034z"/>
		<path style="fill:#E0E0E0;" d="M660.936,102.034c1.014,1.014,1.014,2.658,0,3.672c-1.014,1.014-2.658,1.014-3.672,0
			c-1.014-1.014-1.014-2.658,0-3.672C658.278,101.02,659.922,101.02,660.936,102.034z"/>
		<g>
			<path style="fill:#E0E0E0;" d="M425.647,293.986c-0.144,0-0.26-48.547-0.26-108.419c0-59.893,0.117-108.429,0.26-108.429
				s0.26,48.537,0.26,108.429C425.908,245.439,425.791,293.986,425.647,293.986z"/>
		</g>
		<g>
			<path style="fill:#E0E0E0;" d="M648.546,293.986c-0.144,0-0.261-48.547-0.261-108.419c0-59.893,0.117-108.429,0.261-108.429
				c0.144,0,0.26,48.537,0.26,108.429C648.806,245.439,648.69,293.986,648.546,293.986z"/>
		</g>
		<g>
			<path style="fill:#E0E0E0;" d="M696.347,150.184c0,0-0.061-0.308-0.155-0.91c-0.117-0.598-0.177-1.509-0.454-2.664
				c-0.486-2.313-1.494-5.738-3.907-9.555c-1.277-1.852-2.841-3.825-4.887-5.655c-2.052-1.815-4.51-3.528-7.343-5.015
				c-5.668-2.978-12.77-5.081-20.765-6.112c-8.005-1.197-16.873-0.581-26.377-0.688c-9.506,0.014-19.662,0.03-30.349,0.046
				c-21.377,0.022-44.877,0.046-69.543,0.071c-24.675,0.011-48.18,0.021-69.561,0.03c-10.689-0.001-20.846-0.001-30.353-0.002
				c-2.376-0.001-4.712-0.001-7.005-0.002c-1.147-0.004-2.282-0.008-3.407-0.011c-1.124-0.046-2.236-0.091-3.338-0.136
				c-4.404-0.086-8.633,0.054-12.65,0.433c-8.032,0.767-15.198,2.425-21.218,4.613c-6.027,2.184-10.862,4.983-14.404,7.765
				c-0.446,0.344-0.899,0.656-1.305,0.999c-0.391,0.36-0.771,0.71-1.139,1.048c-0.724,0.688-1.451,1.283-2.037,1.923
				c-0.572,0.652-1.1,1.255-1.583,1.807c-0.475,0.558-0.951,1.028-1.262,1.538c-0.674,0.968-1.189,1.709-1.544,2.22
				c-0.351,0.499-0.542,0.748-0.542,0.748s0.161-0.267,0.497-0.776c0.347-0.519,0.849-1.271,1.505-2.254
				c0.305-0.516,0.776-0.993,1.246-1.558c0.48-0.559,1.004-1.169,1.571-1.83c0.582-0.648,1.307-1.251,2.028-1.949
				c0.367-0.343,0.746-0.697,1.136-1.062c0.405-0.348,0.857-0.664,1.303-1.013c3.539-2.82,8.384-5.659,14.428-7.878
				c6.036-2.223,13.225-3.913,21.284-4.706c4.03-0.392,8.276-0.543,12.694-0.468c1.103,0.042,2.217,0.085,3.341,0.128
				c1.125,0.001,2.261,0.002,3.407,0.004c2.293-0.004,4.629-0.008,7.005-0.012c9.506-0.014,19.662-0.03,30.35-0.046
				c21.377-0.022,44.88-0.046,69.552-0.071c24.664-0.011,48.16-0.021,69.535-0.03c10.686,0.001,20.842,0.001,30.347,0.002
				c4.753-0.019,9.34,0.048,13.756-0.04c4.424-0.038,8.667,0.251,12.68,0.794c8.026,1.059,15.158,3.197,20.853,6.22
				c2.846,1.51,5.315,3.248,7.373,5.088c2.053,1.856,3.618,3.855,4.891,5.73c2.405,3.863,3.385,7.317,3.84,9.644
				c0.261,1.163,0.304,2.078,0.404,2.679C696.321,149.873,696.347,150.184,696.347,150.184z"/>
		</g>
		<g>
			<path style="fill:#E0E0E0;" d="M547.814,185.026c0,0.144-41.792,0.26-93.333,0.26c-51.559,0-93.342-0.117-93.342-0.26
				s41.783-0.26,93.342-0.26C506.022,184.766,547.814,184.883,547.814,185.026z"/>
		</g>
		<g>
			<path style="fill:#E0E0E0;" d="M692.435,185.026c0,0.144-16.089,0.26-35.93,0.26c-19.849,0-35.934-0.117-35.934-0.26
				s16.085-0.26,35.934-0.26C676.347,184.766,692.435,184.883,692.435,185.026z"/>
		</g>
		<rect x="560.645" y="132.374" style="fill:#EBEBEB;" width="47.095" height="47.096"/>
		<path style="fill:#EBEBEB;" d="M614.768,193.5c0,1.609-1.304,2.912-2.912,2.912c-1.608,0-2.912-1.304-2.912-2.912
			s1.304-2.912,2.912-2.912C613.464,190.587,614.768,191.891,614.768,193.5z"/>
		<path style="fill:#EBEBEB;" d="M547.814,293.986v15.597h15.898v18.517c0,0,84.835,0.891,84.835,0c0-0.891,0-18.517,0-18.517
			h-16.09v-15.597H547.814z"/>
		<g>
			<path style="fill:#E0E0E0;" d="M632.456,309.583c0,0.144-15.39,0.26-34.371,0.26c-18.987,0-34.374-0.117-34.374-0.26
				c0-0.144,15.387-0.26,34.374-0.26C617.065,309.323,632.456,309.44,632.456,309.583z"/>
		</g>
		<g>
			<path style="fill:#E0E0E0;" d="M493.951,254.284c0,0-0.014-0.188-0.021-0.533c-0.005-0.368-0.012-0.872-0.022-1.52
				c-0.012-1.352-0.028-3.298-0.05-5.788c-0.025-5.014-0.061-12.212-0.105-21.063l0.197,0.197
				c-14.259,0.017-33.112,0.039-53.727,0.063c-0.236,0.232,0.312-0.317,0.257-0.257v0.007v0.015v0.03v0.06v0.12v0.239v0.478l0,0.954
				c0,0.635,0,1.268,0,1.899c0,1.262-0.001,2.517-0.001,3.763c-0.001,2.492-0.002,4.951-0.003,7.368
				c-0.004,4.835-0.008,9.509-0.012,13.968l-0.244-0.244c15.67,0.048,29.066,0.089,38.574,0.118
				c4.743,0.028,8.514,0.051,11.129,0.067c1.281,0.013,2.277,0.023,2.98,0.03c0.325,0.006,0.578,0.011,0.775,0.015
				C493.854,254.274,493.946,254.279,493.951,254.284c0.005,0.005-0.077,0.01-0.243,0.015c-0.19,0.004-0.434,0.008-0.747,0.015
				c-0.692,0.007-1.671,0.017-2.93,0.03c-2.602,0.016-6.354,0.038-11.074,0.067c-9.548,0.029-23.001,0.07-38.736,0.118l-0.244,0.001
				l0-0.245c-0.004-4.459-0.008-9.133-0.012-13.968c-0.001-2.418-0.002-4.876-0.003-7.368c0-1.246-0.001-2.501-0.001-3.763
				c0-0.631,0-1.264,0-1.899l0-0.954v-0.478v-0.239v-0.12v-0.06v-0.03v-0.015v-0.007c-0.057,0.053,0.494-0.497,0.264-0.264
				c20.615,0.024,39.468,0.046,53.727,0.063l0.198,0l-0.001,0.197c-0.044,8.902-0.08,16.141-0.105,21.184
				c-0.021,2.471-0.038,4.402-0.05,5.744c-0.009,0.632-0.016,1.125-0.022,1.484C493.965,254.124,493.958,254.29,493.951,254.284z"/>
		</g>
	</g>
	<polygon style="fill:#E0E0E0;" points="144.819,134.823 147.346,136.145 144.87,137.559 143.548,140.086 142.133,137.61 
		139.607,136.288 142.083,134.874 143.405,132.347 	"/>
	<polygon style="fill:#E0E0E0;" points="313.939,106.134 316.482,107.423 314.024,108.869 312.735,111.412 311.289,108.954 
		308.746,107.665 311.204,106.219 312.493,103.676 	"/>
	<polygon style="fill:#E0E0E0;" points="367.869,52.75 370.412,54.039 367.954,55.485 366.664,58.028 365.219,55.57 362.676,54.281 
		365.133,52.835 366.423,50.292 	"/>
	<polygon style="fill:#E0E0E0;" points="242.646,64.011 243.313,64.36 242.659,64.733 242.31,65.4 241.937,64.746 241.27,64.397 
		241.924,64.024 242.273,63.357 	"/>
	<polygon style="fill:#E0E0E0;" points="306.219,182.722 308.746,184.044 306.27,185.458 304.948,187.985 303.534,185.509 
		301.007,184.187 303.483,182.773 304.805,180.246 	"/>
</g>
<g id="Background_Simple" style="display:none;">
	<path style="display:inline;fill:#EBEBEB;" d="M143.452,71.562c-35.234,55.755-21.333,117.128,19.824,168.665
		c28.681,35.915,72.14,58.071,117.167,67.295c45.027,9.224,91.739,6.419,137.129-0.806c31.293-4.982,64.501-13.322,85.292-37.234
		c19.805-22.778,23.952-57.552,11.136-84.879c-12.816-27.327-41.444-46.184-71.546-48.4c-20.333-1.497-40.448,3.949-60.676,6.497
		c-20.228,2.548-42.384,1.689-58.685-10.557c-13.476-10.124-20.69-26.264-29.95-40.348c-16.053-24.415-40.494-44.221-69.073-50.302
		c-28.58-6.081-59.223,1.087-76.771,24.451L143.452,71.562z"/>
</g>
<g id="Plants">
	<g>
		<path style="fill:#455A64;" d="M562.404,285.501c-2.248,0.098-4.348,1.337-5.816,3.042c-1.469,1.705-2.36,3.84-2.923,6.019
			c-1.089,4.215-0.355,9.172,0.88,13.346c4.539-1.666,7.304-6.546,8.552-9.109C565.069,294.747,566.173,286.228,562.404,285.501"/>
		<path style="fill:#455A64;" d="M548.039,313.061c1.419-2.075,1.428-4.943,0.273-7.176c-1.155-2.233-3.35-3.831-5.759-4.548
			c-1.114-0.332-2.404-0.464-3.365,0.19c-0.898,0.611-1.279,1.799-1.153,2.878c0.126,1.079,0.682,2.063,1.335,2.931
			C541.609,310.314,544.323,312.785,548.039,313.061"/>
		<g>
			<path style="fill:#263238;" d="M547.447,327.749c-0.073-0.009,0.057-1.322,0.389-3.416c0.291-2.087,0.877-4.998,0.523-8.168
				c-0.377-3.179-1.602-5.889-2.853-7.555c-1.246-1.689-2.383-2.402-2.317-2.483c0.016-0.025,0.312,0.128,0.794,0.483
				c0.486,0.351,1.135,0.94,1.814,1.775c1.367,1.659,2.691,4.445,3.078,7.716c0.364,3.295-0.296,6.224-0.677,8.296
				C547.774,326.475,547.517,327.757,547.447,327.749z"/>
		</g>
		<g>
			<path style="fill:#263238;" d="M560.991,291.915c0.033,0.014-0.143,0.522-0.491,1.427c-0.388,0.992-0.892,2.277-1.498,3.823
				c-1.273,3.223-3.024,7.679-4.894,12.624c-1.869,4.948-3.504,9.447-4.681,12.707c-0.568,1.56-1.041,2.857-1.405,3.857
				c-0.338,0.909-0.542,1.406-0.576,1.395c-0.034-0.011,0.104-0.53,0.384-1.459c0.278-0.93,0.705-2.267,1.249-3.913
				c1.089-3.293,2.671-7.818,4.542-12.771c1.872-4.951,3.679-9.39,5.04-12.58c0.68-1.595,1.245-2.88,1.651-3.762
				C560.718,292.382,560.958,291.901,560.991,291.915z"/>
		</g>
		<path style="fill:#455A64;" d="M553.065,317.965c2.541-4.65,7.454-7.92,12.725-8.468c1.342-0.14,2.967,0.036,3.605,1.225
			c0.639,1.191-0.12,2.648-1.005,3.67c-3.684,4.25-10.089,5.891-15.363,3.937"/>
		<g>
			<path style="fill:#263238;" d="M563.877,313.217c0.012,0.102-1.251,0.192-3.166,0.802c-0.962,0.288-2.059,0.774-3.23,1.39
				c-1.153,0.652-2.364,1.468-3.526,2.465c-1.153,1.008-2.129,2.096-2.948,3.139c-0.795,1.061-1.442,2.071-1.902,2.966
				c-0.938,1.78-1.294,2.991-1.388,2.961c-0.034-0.01,0.034-0.317,0.188-0.868c0.072-0.277,0.175-0.612,0.331-0.987
				c0.15-0.377,0.302-0.817,0.541-1.271c0.426-0.933,1.054-1.986,1.847-3.088c0.816-1.084,1.807-2.211,2.99-3.244
				c1.191-1.022,2.444-1.849,3.64-2.494c1.215-0.609,2.354-1.071,3.352-1.32c0.489-0.157,0.95-0.225,1.35-0.302
				c0.398-0.085,0.747-0.122,1.034-0.136C563.56,313.187,563.875,313.181,563.877,313.217z"/>
		</g>
	</g>
	<g>
		<path style="fill:#455A64;" d="M193.925,385.126c2.248,0.098,4.348,1.337,5.816,3.042c1.469,1.705,2.36,3.84,2.923,6.019
			c1.089,4.215,0.355,9.172-0.88,13.346c-4.538-1.666-7.304-6.546-8.552-9.109C191.26,394.372,190.156,385.853,193.925,385.126"/>
		<path style="fill:#455A64;" d="M208.291,412.686c-1.419-2.075-1.428-4.943-0.273-7.176c1.155-2.233,3.35-3.831,5.759-4.548
			c1.114-0.332,2.404-0.464,3.365,0.19c0.898,0.611,1.279,1.799,1.153,2.878c-0.126,1.079-0.682,2.063-1.335,2.931
			C214.721,409.939,212.007,412.41,208.291,412.686"/>
		<g>
			<path style="fill:#263238;" d="M208.329,427.144c-0.035,0.005-0.117-0.311-0.231-0.886c-0.114-0.576-0.262-1.412-0.412-2.452
				c-0.289-2.072-0.632-4.999-0.218-8.221c0.418-3.225,1.726-5.976,3.089-7.608c0.674-0.824,1.317-1.403,1.797-1.75
				c0.478-0.35,0.769-0.501,0.786-0.476c0.066,0.081-1.056,0.787-2.292,2.452c-1.247,1.641-2.456,4.315-2.864,7.451
				c-0.405,3.139-0.128,6.033,0.067,8.108C208.264,425.842,208.406,427.134,208.329,427.144z"/>
		</g>
		<g>
			<path style="fill:#263238;" d="M195.339,391.54c0.033-0.014,0.273,0.467,0.678,1.349c0.406,0.881,0.971,2.166,1.651,3.761
				c1.362,3.19,3.168,7.63,5.04,12.58c1.871,4.953,3.453,9.478,4.542,12.771c0.545,1.647,0.971,2.984,1.249,3.913
				c0.279,0.929,0.418,1.448,0.384,1.459c-0.034,0.011-0.237-0.486-0.576-1.395c-0.365-1-0.837-2.297-1.405-3.857
				c-1.177-3.26-2.812-7.76-4.681-12.707c-1.87-4.945-3.62-9.401-4.894-12.625c-0.606-1.546-1.109-2.831-1.498-3.823
				C195.482,392.061,195.305,391.554,195.339,391.54z"/>
		</g>
		<path style="fill:#455A64;" d="M203.565,416.823c-2.948-4.403-8.135-7.219-13.434-7.292c-1.349-0.019-2.952,0.302-3.48,1.544
			c-0.529,1.244,0.357,2.627,1.331,3.565c4.051,3.902,10.577,4.961,15.654,2.542"/>
		<g>
			<path style="fill:#263238;" d="M192.452,412.842c0.003-0.036,0.313-0.032,0.877,0.007c0.283,0.014,0.627,0.045,1.021,0.123
				c0.394,0.073,0.851,0.13,1.336,0.275c0.986,0.233,2.127,0.643,3.341,1.214c1.201,0.596,2.467,1.367,3.676,2.337
				c1.197,0.986,2.211,2.068,3.04,3.122c0.807,1.072,1.441,2.105,1.871,3.022c0.241,0.445,0.391,0.881,0.542,1.252
				c0.157,0.37,0.258,0.7,0.329,0.974c0.153,0.544,0.22,0.847,0.186,0.857c-0.095,0.031-0.443-1.167-1.385-2.914
				c-0.462-0.878-1.114-1.865-1.921-2.894c-0.829-1.011-1.826-2.054-2.991-3.014c-1.178-0.944-2.402-1.706-3.561-2.311
				c-1.172-0.579-2.272-1.016-3.225-1.288C193.685,413.037,192.441,412.941,192.452,412.842z"/>
		</g>
	</g>
</g>
<g id="Moon">
	<path style="fill:#263238;" d="M266.041,151.096c-15.091,0-27.325-12.234-27.325-27.325c0-6.031,1.977-11.586,5.286-16.106
		c-6.791,4.971-11.219,12.978-11.219,22.039c0,15.091,12.234,27.326,27.325,27.326c9.061,0,17.068-4.429,22.039-11.22
		C277.628,149.119,272.072,151.096,266.041,151.096z"/>
</g>
<g id="Stars">
	<polygon style="fill:#455A64;" points="172.238,103.215 173.284,103.745 172.273,104.34 171.743,105.386 171.148,104.375 
		170.102,103.845 171.113,103.25 171.643,102.204 	"/>
	<polygon style="fill:#455A64;" points="194.227,155.636 196.753,156.958 194.277,158.372 192.955,160.899 191.541,158.423 
		189.014,157.101 191.49,155.687 192.812,153.16 	"/>
	<polygon style="fill:#455A64;" points="314.257,106.271 316.783,107.593 314.307,109.007 312.985,111.534 311.571,109.058 
		309.044,107.736 311.52,106.322 312.842,103.795 	"/>
</g>
<g id="Tent">
	<g>
		<g>
			<path style="fill:#E8505B;" d="M61.115,377.155c0.93-2.791,66.979-168.378,66.979-168.378s245.59-1.861,245.59,0
				c0,1.861,49.784,167.911,49.784,167.911L61.115,377.155z"/>
			<g>
				<path style="opacity:0.2;" d="M133.85,217.982c0.963,1.445,50.562,158.152,50.562,158.152H69.324L133.85,217.982z"/>
				<g>
					<g>
						<path style="fill:#263238;" d="M308.746,376.838c0,0-0.215-0.058-0.625-0.195c-0.427-0.146-1.031-0.352-1.818-0.621
							c-1.612-0.566-3.957-1.389-6.972-2.447c-6.008-2.251-14.704-5.529-25.166-10.259c-10.452-4.732-22.667-10.943-35.51-19.046
							c-12.831-8.089-26.213-18.271-38.428-30.861c-6.057-6.345-11.478-12.98-16.463-19.567c-4.989-6.587-9.488-13.17-13.609-19.541
							c-8.267-12.73-15.121-24.556-21.001-34.404c-5.852-9.866-10.66-17.806-14.099-23.219c-1.686-2.729-3.07-4.799-3.97-6.228
							c-0.446-0.702-0.788-1.241-1.03-1.622c-0.23-0.367-0.336-0.563-0.336-0.563s0.136,0.176,0.381,0.533
							c0.252,0.374,0.608,0.904,1.073,1.594c0.928,1.411,2.341,3.464,4.053,6.177c3.494,5.382,8.351,13.297,14.245,23.14
							c5.921,9.825,12.806,21.628,21.087,34.331c4.128,6.357,8.63,12.925,13.615,19.495c4.981,6.569,10.394,13.19,16.431,19.513
							c12.179,12.551,25.517,22.721,38.31,30.817c12.805,8.11,24.984,14.346,35.406,19.116c10.43,4.768,19.1,8.096,25.083,10.404
							c3,1.098,5.333,1.952,6.937,2.538c0.78,0.29,1.378,0.513,1.801,0.67C308.543,376.747,308.746,376.838,308.746,376.838z"/>
					</g>
					<g>
						<path style="fill:#263238;" d="M501.256,371.861c0,0-0.191-0.023-0.56-0.094c-0.388-0.078-0.93-0.186-1.634-0.327
							c-1.431-0.314-3.56-0.689-6.263-1.354c-1.355-0.323-2.86-0.682-4.505-1.074c-1.635-0.447-3.41-0.931-5.316-1.452
							c-1.898-0.553-3.906-1.221-6.047-1.889c-1.053-0.386-2.137-0.784-3.249-1.191c-1.112-0.41-2.26-0.811-3.394-1.328
							c-1.145-0.492-2.316-0.996-3.514-1.511c-1.178-0.558-2.36-1.176-3.579-1.78c-1.233-0.579-2.423-1.295-3.642-2.012
							c-1.219-0.716-2.482-1.415-3.673-2.272c-1.199-0.842-2.478-1.619-3.67-2.554c-1.193-0.934-2.405-1.884-3.634-2.847
							c-1.163-1.042-2.343-2.1-3.54-3.171c-1.189-1.079-2.285-2.287-3.454-3.448c-4.547-4.773-8.817-10.238-12.868-16.148
							c-3.976-5.966-7.813-12.305-11.662-18.85c-15.353-26.243-26.138-51.661-33.026-70.31
							c-6.894-18.67-10.342-30.491-10.342-30.491s0.077,0.177,0.201,0.531c0.128,0.374,0.308,0.897,0.541,1.576
							c0.471,1.408,1.155,3.451,2.032,6.073c1.821,5.255,4.385,12.885,7.913,22.182c6.974,18.606,17.797,43.965,33.132,70.177
							c3.844,6.536,7.678,12.877,11.634,18.826c4.033,5.896,8.278,11.344,12.793,16.103c1.161,1.157,2.249,2.361,3.429,3.438
							c1.187,1.069,2.358,2.123,3.513,3.163c1.22,0.961,2.422,1.908,3.606,2.84c1.183,0.934,2.452,1.709,3.642,2.551
							c1.182,0.857,2.435,1.556,3.646,2.273c1.21,0.718,2.392,1.435,3.617,2.016c1.211,0.606,2.385,1.226,3.556,1.787
							c1.191,0.518,2.356,1.025,3.494,1.521c1.128,0.52,2.27,0.926,3.376,1.341c1.107,0.413,2.184,0.815,3.232,1.205
							c2.132,0.678,4.131,1.357,6.021,1.923c1.899,0.535,3.667,1.032,5.296,1.491c1.64,0.408,3.139,0.781,4.49,1.117
							c2.693,0.695,4.815,1.102,6.237,1.449c0.699,0.163,1.237,0.288,1.623,0.378C501.072,371.803,501.256,371.861,501.256,371.861z
							"/>
					</g>
					<polygon style="opacity:0.6;" points="133.428,376.134 129.717,271.317 123.35,376.134 					"/>
				</g>
			</g>
		</g>
		<g>
			<path style="fill:#263238;" d="M129.717,208.267c0,0-0.035,0.161-0.129,0.467c-0.103,0.326-0.245,0.777-0.428,1.356
				c-0.397,1.21-0.971,2.956-1.705,5.193c-1.506,4.502-3.758,10.992-6.677,18.963c-5.805,15.954-14.49,37.744-24.471,61.64
				c-4.928,11.98-10.041,23.238-15.356,33.137c-5.332,9.885-10.817,18.426-16.003,25.157c-5.186,6.731-9.88,11.785-13.347,15.03
				c-0.424,0.415-0.824,0.807-1.201,1.175c-0.392,0.349-0.76,0.677-1.102,0.981c-0.68,0.601-1.258,1.112-1.733,1.531
				c-0.458,0.399-0.814,0.709-1.072,0.934c-0.243,0.208-0.377,0.304-0.377,0.304s0.11-0.124,0.342-0.345
				c0.25-0.234,0.594-0.557,1.037-0.972c0.465-0.429,1.031-0.952,1.697-1.567c0.337-0.31,0.698-0.642,1.084-0.997
				c0.371-0.373,0.766-0.77,1.183-1.19c3.418-3.284,8.059-8.365,13.196-15.108c5.136-6.744,10.574-15.283,15.873-25.161
				c5.282-9.892,10.372-21.135,15.298-33.11c9.981-23.894,18.716-45.652,24.607-61.568c2.962-7.951,5.267-14.42,6.831-18.901
				c0.774-2.223,1.379-3.958,1.798-5.161c0.204-0.572,0.362-1.017,0.477-1.339C129.648,208.417,129.717,208.267,129.717,208.267z"/>
		</g>
	</g>
</g>
<g id="Character_2">
	<g>
		<g>
			<g>
				<g>
					<g>
						<g>
							<g>
								<path style="fill:#263238;" d="M508.317,426.495l7.694-1.536l2.969,14.393l-11.232,2.366l-0.241-0.881
									c-1.04-3.926-5.01-20.036-4.753-22.857C503.041,414.834,508.317,426.495,508.317,426.495z"/>
							</g>
						</g>
					</g>
					<g>
						<g>
							<g>
								<path style="fill:#455A64;" d="M508.12,441.853c-0.006,0.001-0.033-0.082-0.078-0.242c-0.057-0.211-0.119-0.441-0.19-0.702
									c-0.178-0.704-0.396-1.57-0.654-2.592c-0.537-2.193-1.238-5.232-1.939-8.605c-0.7-3.374-1.267-6.441-1.648-8.666
									c-0.17-1.04-0.315-1.921-0.432-2.638c-0.039-0.267-0.074-0.503-0.105-0.719c-0.022-0.165-0.031-0.252-0.025-0.253
									c0.006-0.001,0.027,0.084,0.06,0.247c0.042,0.214,0.087,0.449,0.138,0.714c0.133,0.714,0.296,1.592,0.488,2.628
									c0.413,2.219,0.999,5.281,1.699,8.652c0.701,3.371,1.382,6.413,1.887,8.612c0.236,1.027,0.436,1.897,0.599,2.605
									c0.058,0.263,0.11,0.497,0.157,0.71C508.111,441.766,508.126,441.852,508.12,441.853z"/>
							</g>
						</g>
					</g>
					<g>
						<g>
							<g>
								<path style="fill:#455A64;" d="M503.713,422.547c-0.018-0.052,0.598-0.222,1.147-0.747c0.558-0.515,0.766-1.12,0.817-1.099
									c0.046,0.001-0.098,0.674-0.695,1.229C504.392,422.491,503.712,422.592,503.713,422.547z"/>
							</g>
						</g>
					</g>
					<g>
						<g>
							<g>
								<path style="fill:#455A64;" d="M506.746,426.348c-0.034-0.035,0.171-0.29,0.458-0.568c0.287-0.279,0.548-0.475,0.582-0.44
									c0.034,0.035-0.171,0.29-0.458,0.568C507.041,426.186,506.78,426.383,506.746,426.348z"/>
							</g>
						</g>
					</g>
					<g>
						<g>
							<g>
								<path style="fill:#455A64;" d="M507.603,427.385c-0.042-0.025,0.062-0.283,0.234-0.577c0.171-0.294,0.345-0.512,0.387-0.488
									c0.043,0.025-0.062,0.283-0.233,0.577C507.819,427.192,507.646,427.41,507.603,427.385z"/>
							</g>
						</g>
					</g>
					<g>
						<g>
							<g>
								<path style="fill:#455A64;" d="M509.114,427.841c-0.048,0.011-0.16-0.317-0.251-0.731c-0.091-0.414-0.125-0.758-0.077-0.769
									c0.048-0.011,0.16,0.317,0.251,0.731C509.127,427.486,509.162,427.831,509.114,427.841z"/>
							</g>
						</g>
					</g>
					<g>
						<g>
							<g>
								<path style="fill:#455A64;" d="M510.124,427.896c-0.04,0.025-0.281-0.307-0.417-0.787c-0.139-0.48-0.11-0.889-0.064-0.889
									c0.051-0.002,0.102,0.384,0.235,0.84C510.007,427.516,510.169,427.871,510.124,427.896z"/>
							</g>
						</g>
					</g>
					<g>
						<g>
							<g>
								<path style="fill:#455A64;" d="M507.9,425.6c-0.019,0.005-0.136-0.341-0.186-0.926c-0.025-0.292-0.027-0.643,0.013-1.029
									c0.027-0.193,0.036-0.392,0.116-0.612c0.042-0.104,0.107-0.224,0.24-0.288c0.131-0.067,0.302-0.025,0.399,0.064
									c0.641,0.789,0.327,1.777-0.062,2.2c-0.196,0.229-0.406,0.358-0.555,0.429c-0.151,0.07-0.241,0.086-0.245,0.076
									c-0.019-0.03,0.351-0.138,0.702-0.584c0.172-0.22,0.319-0.53,0.35-0.896c0.029-0.346-0.041-0.817-0.303-1.087
									c-0.139-0.124-0.3-0.031-0.364,0.152c-0.067,0.173-0.086,0.382-0.114,0.566c-0.048,0.375-0.059,0.717-0.051,1.004
									C507.857,425.241,507.929,425.594,507.9,425.6z"/>
							</g>
						</g>
					</g>
					<g>
						<g>
							<g>
								<path style="fill:#455A64;" d="M507.805,425.37c-0.013-0.011,0.195-0.196,0.62-0.24c0.209-0.02,0.466,0.005,0.728,0.113
									c0.239,0.121,0.565,0.272,0.631,0.672c0.017,0.22-0.206,0.375-0.368,0.373c-0.165,0.017-0.32-0.027-0.446-0.072
									c-0.259-0.09-0.478-0.207-0.65-0.321c-0.343-0.231-0.499-0.438-0.484-0.452c0.019-0.021,0.204,0.15,0.55,0.344
									c0.173,0.096,0.387,0.196,0.635,0.272c0.222,0.087,0.591,0.101,0.585-0.14c-0.026-0.236-0.305-0.425-0.519-0.528
									c-0.23-0.104-0.462-0.14-0.655-0.137C508.04,425.263,507.818,425.399,507.805,425.37z"/>
							</g>
						</g>
					</g>
					<g>
						<g>
							<g>
								<path style="fill:#455A64;" d="M511.997,440.745c-0.033,0.004-0.046-0.42-0.257-1.055c-0.205-0.63-0.655-1.471-1.436-2.122
									c-0.783-0.65-1.692-0.939-2.348-1.026c-0.662-0.092-1.081-0.027-1.084-0.061c-0.001-0.011,0.101-0.037,0.29-0.06
									c0.189-0.024,0.467-0.035,0.809-0.004c0.678,0.056,1.631,0.336,2.448,1.014c0.815,0.679,1.263,1.566,1.442,2.221
									c0.093,0.33,0.132,0.605,0.143,0.796C512.015,440.639,512.008,440.744,511.997,440.745z"/>
							</g>
						</g>
					</g>
					<g>
						<g>
							<g>
								<path style="fill:#455A64;" d="M517.677,438.014c0.011,0.048-1.301,0.378-2.93,0.736c-1.629,0.359-2.958,0.611-2.969,0.563
									c-0.011-0.048,1.301-0.378,2.93-0.736C516.337,438.218,517.667,437.966,517.677,438.014z"/>
							</g>
						</g>
					</g>
					<g>
						<g>
							<g>
								<path style="fill:#455A64;" d="M507.813,434.375c-0.044,0.016-0.392-0.89-0.643-2.058c-0.255-1.167-0.313-2.135-0.267-2.14
									c0.052-0.006,0.189,0.946,0.441,2.102C507.592,433.436,507.862,434.359,507.813,434.375z"/>
							</g>
						</g>
					</g>
					<g>
						<g>
							<g>
								<path style="fill:#455A64;" d="M508.4,437.195c-0.028,0.042-0.215-0.036-0.451-0.087c-0.235-0.055-0.438-0.064-0.445-0.115
									c-0.009-0.047,0.212-0.121,0.484-0.059C508.261,436.995,508.429,437.157,508.4,437.195z"/>
							</g>
						</g>
					</g>
					<g>
						<g>
							<g>
								<path style="fill:#455A64;" d="M509.943,437.984c-0.027,0.041-0.196-0.021-0.377-0.138
									c-0.182-0.117-0.307-0.246-0.281-0.288c0.027-0.041,0.196,0.021,0.378,0.138
									C509.844,437.814,509.97,437.943,509.943,437.984z"/>
							</g>
						</g>
					</g>
					<g>
						<g>
							<g>
								<path style="fill:#455A64;" d="M510.862,439.38c-0.051,0-0.089-0.192-0.207-0.387c-0.113-0.199-0.262-0.325-0.237-0.37
									c0.018-0.044,0.248,0.035,0.391,0.279C510.953,439.146,510.91,439.386,510.862,439.38z"/>
							</g>
						</g>
					</g>
					<g>
						<g>
							<g>
								<path style="fill:#455A64;" d="M511.371,440.404c-0.041,0.027-0.132-0.041-0.203-0.15c-0.071-0.11-0.095-0.221-0.054-0.247
									c0.041-0.027,0.132,0.041,0.203,0.151C511.389,440.267,511.413,440.377,511.371,440.404z"/>
							</g>
						</g>
					</g>
				</g>
			</g>
		</g>
		<g>
			<g>
				<polygon style="fill:#455A64;" points="514.396,441.868 568.338,436.885 649.179,438.694 632.171,420.187 574.133,417.399 
					510.075,423.448 				"/>
				<g>
					<g>
						<path style="fill:#263238;" d="M524.486,431.226c0.016,0.143-1.083,0.387-2.453,0.546c-1.37,0.159-2.495,0.171-2.513,0.029
							c-0.017-0.143,1.081-0.387,2.453-0.546C523.345,431.095,524.47,431.083,524.486,431.226z"/>
					</g>
					<g>
						<path style="fill:#263238;" d="M534.436,430.241c0.012,0.143-1.091,0.363-2.465,0.492c-1.374,0.128-2.499,0.116-2.513-0.027
							c-0.014-0.143,1.089-0.363,2.465-0.492C533.298,430.086,534.423,430.098,534.436,430.241z"/>
					</g>
					<g>
						<path style="fill:#263238;" d="M544.406,429.469c0.01,0.144-1.099,0.34-2.475,0.44c-1.377,0.099-2.501,0.064-2.512-0.08
							c-0.011-0.143,1.097-0.34,2.475-0.44C543.272,429.29,544.396,429.326,544.406,429.469z"/>
					</g>
					<g>
						<path style="fill:#263238;" d="M554.39,428.904c0.007,0.144-1.105,0.318-2.483,0.389c-1.378,0.071-2.502,0.012-2.51-0.132
							c-0.008-0.144,1.103-0.317,2.483-0.389C553.259,428.701,554.383,428.76,554.39,428.904z"/>
					</g>
					<g>
						<path style="fill:#263238;" d="M564.383,428.541c0.004,0.144-1.112,0.295-2.49,0.338c-1.38,0.043-2.502-0.038-2.507-0.182
							c-0.005-0.144,1.109-0.295,2.491-0.338C563.257,428.316,564.379,428.397,564.383,428.541z"/>
					</g>
					<g>
						<path style="fill:#263238;" d="M574.381,428.379c0.001,0.144-1.117,0.273-2.497,0.288c-1.38,0.016-2.5-0.089-2.503-0.232
							c-0.003-0.144,1.115-0.273,2.497-0.288C573.26,428.131,574.381,428.235,574.381,428.379z"/>
					</g>
					<g>
						<path style="fill:#263238;" d="M584.381,428.418c-0.002,0.144-1.122,0.251-2.502,0.238c-1.38-0.012-2.498-0.139-2.498-0.283
							c0-0.144,1.121-0.25,2.502-0.238C583.265,428.147,584.384,428.274,584.381,428.418z"/>
					</g>
					<g>
						<path style="fill:#263238;" d="M594.378,428.659c-0.005,0.144-1.127,0.228-2.506,0.187c-1.38-0.04-2.495-0.189-2.491-0.333
							c0.003-0.144,1.125-0.228,2.507-0.187C593.268,428.366,594.384,428.515,594.378,428.659z"/>
					</g>
					<g>
						<path style="fill:#263238;" d="M604.368,429.105c-0.008,0.144-1.132,0.204-2.51,0.135c-1.378-0.069-2.49-0.241-2.484-0.385
							c0.006-0.144,1.13-0.204,2.51-0.135C603.264,428.789,604.377,428.962,604.368,429.105z"/>
					</g>
					<g>
						<path style="fill:#263238;" d="M614.347,429.764c-0.011,0.143-1.136,0.18-2.512,0.082c-1.377-0.098-2.485-0.294-2.475-0.438
							c0.009-0.143,1.134-0.18,2.512-0.082C613.25,429.425,614.358,429.621,614.347,429.764z"/>
					</g>
					<g>
						<path style="fill:#263238;" d="M621.213,430.345c-0.013,0.143-0.445,0.221-0.965,0.174c-0.52-0.047-0.931-0.201-0.918-0.344
							c0.013-0.143,0.445-0.221,0.965-0.174C620.815,430.048,621.226,430.202,621.213,430.345z"/>
					</g>
				</g>
				<g>
					<path style="fill:#263238;" d="M521.61,441.108c-0.074,0.015-0.341-1.028-0.767-2.712c-0.426-1.684-1.023-4.006-1.748-6.552
						c-0.727-2.547-1.445-4.835-1.972-6.49c-0.526-1.655-0.849-2.682-0.779-2.708c0.064-0.024,0.51,0.958,1.127,2.588
						c0.617,1.629,1.394,3.91,2.125,6.467c0.729,2.558,1.272,4.905,1.607,6.614C521.538,440.025,521.678,441.095,521.61,441.108z"/>
				</g>
			</g>
			<g>
				<path style="fill:#455A64;" d="M659.37,430.586c-1.111,1.414-3.512,8.139-9.27,11.069c-7.733,3.935-19.039,1.551-25.734-5.041
					c-18.527-18.242-43.73-46.69-43.73-46.69L569.3,439.355l-21.216-3.367c0,0,11.936-56.776,18.752-65.273
					c2.579-3.216,9.217-10.106,21.592-1.186c11.303,8.147,28.767,23.032,55.848,48.329L659.37,430.586z"/>
				<g>
					<path style="fill:#263238;" d="M653.665,426.245c0.015,0.027-0.185,0.178-0.591,0.38c-0.404,0.203-1.029,0.427-1.835,0.555
						c-1.58,0.27-4.04-0.011-5.994-1.671c-1.937-1.682-2.586-4.072-2.557-5.674c0.004-0.816,0.131-1.468,0.271-1.898
						c0.138-0.431,0.258-0.652,0.287-0.641c0.097,0.025-0.275,0.968-0.19,2.528c0.064,1.526,0.739,3.738,2.528,5.29
						c1.804,1.534,4.091,1.868,5.61,1.701C652.75,426.663,653.626,426.152,653.665,426.245z"/>
				</g>
				<g>
					<path style="fill:#263238;" d="M569.938,436.014c-0.012,0.071-1.244-0.067-3.226-0.351c-1.982-0.283-4.713-0.715-7.726-1.201
						c-2.936-0.472-5.591-0.899-7.717-1.241c-1.975-0.319-3.195-0.531-3.186-0.604c0.008-0.069,1.246,0.013,3.237,0.24
						c1.991,0.225,4.733,0.604,7.75,1.092c3.016,0.486,5.737,0.977,7.704,1.352C568.739,435.677,569.95,435.943,569.938,436.014z"/>
				</g>
				<g>
					<g>
						<path style="fill:#263238;" d="M560.992,428.643c0.14,0.035-0.011,1.151-0.336,2.493c-0.325,1.342-0.702,2.403-0.842,2.37
							c-0.14-0.033,0.011-1.149,0.336-2.493C560.476,429.67,560.853,428.609,560.992,428.643z"/>
					</g>
					<g>
						<path style="fill:#263238;" d="M563.508,418.963c0.139,0.038-0.036,1.15-0.391,2.483c-0.355,1.334-0.755,2.385-0.895,2.349
							c-0.139-0.036,0.036-1.148,0.391-2.483C562.969,419.977,563.37,418.925,563.508,418.963z"/>
					</g>
					<g>
						<path style="fill:#263238;" d="M566.254,409.352c0.138,0.041-0.064,1.148-0.451,2.471c-0.387,1.324-0.813,2.365-0.951,2.325
							c-0.138-0.039,0.064-1.146,0.451-2.471C565.691,410.351,566.117,409.31,566.254,409.352z"/>
					</g>
					<g>
						<path style="fill:#263238;" d="M569.237,399.807c0.137,0.045-0.093,1.146-0.512,2.461c-0.42,1.315-0.871,2.345-1.008,2.302
							c-0.137-0.043,0.092-1.144,0.512-2.461C568.649,400.794,569.101,399.763,569.237,399.807z"/>
					</g>
					<g>
						<path style="fill:#263238;" d="M572.435,390.337c0.136,0.047-0.117,1.143-0.565,2.447c-0.448,1.304-0.921,2.324-1.058,2.278
							c-0.136-0.046,0.117-1.141,0.565-2.447C571.825,391.31,572.299,390.29,572.435,390.337z"/>
					</g>
					<g>
						<path style="fill:#263238;" d="M575.809,380.927c0.135,0.05-0.138,1.142-0.609,2.438c-0.471,1.297-0.963,2.309-1.098,2.261
							c-0.135-0.048,0.137-1.14,0.609-2.439C575.182,381.889,575.674,380.877,575.809,380.927z"/>
					</g>
					<g>
						<path style="fill:#263238;" d="M581.586,383.461c-0.106,0.097-0.946-0.652-1.875-1.674c-0.93-1.022-1.596-1.928-1.49-2.025
							c0.107-0.096,0.946,0.653,1.875,1.674C581.025,382.458,581.691,383.364,581.586,383.461z"/>
					</g>
					<g>
						<path style="fill:#263238;" d="M588.364,390.809c-0.105,0.098-0.951-0.644-1.889-1.656c-0.938-1.012-1.612-1.912-1.507-2.01
							c0.105-0.098,0.951,0.644,1.889,1.656C587.795,389.812,588.469,390.712,588.364,390.809z"/>
					</g>
					<g>
						<path style="fill:#263238;" d="M595.197,398.111c-0.105,0.098-0.956-0.638-1.901-1.645c-0.945-1.007-1.626-1.903-1.521-2.001
							c0.105-0.098,0.956,0.638,1.901,1.645C594.62,397.116,595.302,398.012,595.197,398.111z"/>
					</g>
					<g>
						<path style="fill:#263238;" d="M602.063,405.381c-0.104,0.099-0.958-0.634-1.907-1.637c-0.949-1.003-1.633-1.896-1.529-1.995
							c0.104-0.099,0.958,0.634,1.907,1.637C601.482,404.389,602.167,405.282,602.063,405.381z"/>
					</g>
					<g>
						<path style="fill:#263238;" d="M608.944,412.637c-0.104,0.099-0.959-0.633-1.909-1.634c-0.951-1.002-1.636-1.894-1.532-1.993
							c0.104-0.099,0.959,0.633,1.91,1.634C608.362,411.646,609.048,412.538,608.944,412.637z"/>
					</g>
					<g>
						<path style="fill:#263238;" d="M615.822,419.895c-0.104,0.099-0.959-0.634-1.908-1.636c-0.95-1.003-1.634-1.896-1.53-1.995
							c0.104-0.099,0.958,0.634,1.908,1.637C615.242,418.904,615.927,419.797,615.822,419.895z"/>
					</g>
					<g>
						<path style="fill:#263238;" d="M622.724,427.129c-0.084,0.102-1.003-0.59-1.946-1.599c-0.946-1.005-1.628-1.9-1.523-1.999
							c0.104-0.099,0.956,0.636,1.902,1.642C622.099,426.181,622.825,427.01,622.724,427.129z"/>
					</g>
					<g>
						<path style="fill:#263238;" d="M631.54,431.509c-0.011,0.138-1.17,0.137-2.516-0.295c-1.348-0.426-2.297-1.083-2.229-1.202
							c0.07-0.133,1.095,0.299,2.387,0.706C630.471,431.132,631.557,431.36,631.54,431.509z"/>
					</g>
					<g>
						<path style="fill:#263238;" d="M640.981,429.08c0.082,0.108-0.759,0.892-2.021,1.527c-1.262,0.645-2.422,0.8-2.449,0.661
							c-0.033-0.143,1.008-0.509,2.215-1.127C639.936,429.533,640.892,428.957,640.981,429.08z"/>
					</g>
					<g>
						<path style="fill:#263238;" d="M644.892,425.53c0.111,0.091,0.157,0.216,0.103,0.279c-0.054,0.063-0.185,0.036-0.292-0.06
							c-0.107-0.096-0.154-0.22-0.103-0.279C644.651,425.412,644.781,425.439,644.892,425.53z"/>
					</g>
				</g>
				<g>
					<path style="fill:#263238;" d="M578.765,385.137c0.149-0.026,0.472,1.22,0.99,2.71c0.537,1.487,0.888,2.762,0.733,2.807
						c-0.123,0.034-0.677-1.119-1.226-2.639C578.73,386.482,578.63,385.157,578.765,385.137z"/>
				</g>
			</g>
			<g>
				<path style="fill:#263238;" d="M625.732,437.848c-0.103,0.101-4.329-4.04-9.439-9.247c-5.112-5.209-9.171-9.512-9.068-9.613
					c0.103-0.101,4.328,4.039,9.44,9.248C621.775,433.443,625.835,437.747,625.732,437.848z"/>
			</g>
			<g>
				<path style="fill:#263238;" d="M574.703,416.161c0.14,0.034-0.946,5.06-2.426,11.225c-1.48,6.167-2.793,11.138-2.933,11.104
					c-0.14-0.034,0.946-5.059,2.427-11.226C573.25,421.1,574.563,416.128,574.703,416.161z"/>
			</g>
			<g>
				<path style="fill:#263238;" d="M569.3,439.355c-0.006,0.035-0.594-0.031-1.652-0.182c-1.144-0.175-2.651-0.406-4.471-0.686
					c-3.771-0.602-8.975-1.468-14.717-2.456c-0.336-0.058-0.669-0.115-0.98-0.169l-0.273-0.047l0.063-0.268
					c1.295-5.465,2.732-10.283,3.692-13.779c0.466-1.681,0.852-3.07,1.146-4.128c0.27-0.973,0.427-1.507,0.462-1.499
					c0.033,0.008-0.06,0.557-0.271,1.546c-0.209,0.989-0.547,2.414-0.989,4.174c-0.87,3.522-2.249,8.361-3.532,13.804l-0.209-0.315
					c0.31,0.053,0.644,0.111,0.98,0.168c5.742,0.988,10.936,1.912,14.691,2.607c1.809,0.346,3.306,0.632,4.443,0.849
					C568.73,439.186,569.306,439.32,569.3,439.355z"/>
			</g>
		</g>
		<path style="fill:#FFBE9D;" d="M594.316,369.071l-0.721-2.267c0,0-0.657-1.3-1.289-3.787c-0.164-0.645-0.21-1.314-0.149-1.977
			c0.074-0.804,0.217-1.867,0.476-2.425c0.32-0.691-0.365-1.411-0.971-1.077c-0.605,0.334-1.534,2.216-1.542,4.667
			c-0.007,2.451-2.433-0.548-3.336-1.625s-3.856-4.279-4.407-4.263c-0.808,0.023-0.933,0.893-0.006,1.948
			c0.939,1.068,3.486,4.414,2.894,4.863c-0.583,0.443-5.108-5.103-5.108-5.103s-0.775-1.342-1.477-0.845
			c-1.265,0.896,3.98,6.438,4.492,6.954c0.356,0.358-0.27,0.87-0.631,0.465c-0.372-0.417-4.385-5.638-5.682-4.737
			c-0.995,0.691,4.272,4.599,4.502,6.144c0.231,1.545-3.692-3.369-4.616-2.671c-0.344,0.26-0.564,0.502,2.096,2.999
			c2.725,2.558,11.234,8.285,11.234,8.285l4.238-5.689"/>
		<g>
			<path style="fill:#263238;" d="M642.524,318.596c-2.322-2.729-5.989-4.324-9.552-3.936c-3.563,0.388-6.878,2.842-8.088,6.215
				c-0.351,0.977-0.57,2.076-1.343,2.77c-1.165,1.046-3.117,0.744-4.288,1.784c-1.132,1.005-1.039,2.779-0.753,4.265
				c0.286,1.486,0.644,3.145-0.175,4.418c-1.044,1.622-3.656,1.992-4.161,3.854c-0.465,1.719,1.283,3.405,0.982,5.16
				c-0.151,0.883-0.793,1.587-1.25,2.358c-0.971,1.638-0.946,4.081,0.642,5.132c0.988,0.654,2.268,0.595,3.45,0.512
				c5.38-0.378,10.761-0.755,16.142-1.132"/>
			<g>
				<g>
					<g>
						<g>
							<path style="fill:#FFBE9D;" d="M643.008,365.337L643.008,365.337c-4.789,0.774-8.802-1.962-8.746-6.814
								c0.038-3.287-0.217-7.164-0.217-7.164s-6.393-0.259-7.188-6.53c-0.795-6.271-1.354-20.816-1.354-20.816l0,0
								c6.913-3.955,15.424-3.859,22.246,0.251l-0.532,3.252l2.336,29.487C649.875,361.062,647.027,364.688,643.008,365.337z"/>
						</g>
						<g>
							<g>
								<path style="fill:#263238;" d="M627.977,334.414c0.334-0.381,0.297-0.961-0.084-1.295s-0.961-0.297-1.295,0.084
									c-0.334,0.381-0.297,0.961,0.084,1.296C627.063,334.833,627.643,334.795,627.977,334.414z"/>
							</g>
							<g>
								<g>
									<path style="fill:#263238;" d="M626.306,333.437c0.111,0.097,0.673-0.448,1.537-0.55c0.863-0.116,1.543,0.272,1.626,0.15
										c0.041-0.055-0.079-0.24-0.377-0.417c-0.293-0.176-0.777-0.323-1.315-0.255c-0.538,0.068-0.971,0.331-1.21,0.574
										C626.323,333.185,626.253,333.394,626.306,333.437z"/>
								</g>
							</g>
						</g>
						<g>
							<g>
								<path style="fill:#263238;" d="M636.141,332.792c-0.399,0.313-0.469,0.89-0.156,1.289c0.313,0.399,0.89,0.469,1.289,0.156
									c0.399-0.313,0.469-0.89,0.156-1.289C637.117,332.549,636.54,332.479,636.141,332.792z"/>
							</g>
							<g>
								<g>
									<path style="fill:#263238;" d="M635.783,333.137c0.111,0.098,0.673-0.448,1.538-0.55c0.863-0.116,1.543,0.272,1.626,0.15
										c0.041-0.055-0.079-0.24-0.377-0.417c-0.292-0.176-0.777-0.323-1.315-0.255c-0.538,0.068-0.971,0.331-1.21,0.574
										C635.8,332.885,635.73,333.094,635.783,333.137z"/>
								</g>
							</g>
						</g>
						<g>
							<g>
								<path style="fill:#263238;" d="M633.056,340.039c-0.002-0.068-0.549-0.116-1.432-0.137c-0.229,0.001-0.413-0.03-0.443-0.149
									c-0.056-0.132,0.004-0.384,0.088-0.666c0.157-0.597,0.316-1.202,0.483-1.836c0.659-2.612,1.085-4.756,0.953-4.789
									c-0.133-0.034-0.774,2.056-1.433,4.668c-0.154,0.637-0.3,1.245-0.445,1.845c-0.053,0.271-0.176,0.594-0.016,0.954
									c0.084,0.18,0.277,0.295,0.431,0.317c0.155,0.028,0.283,0.014,0.392,0.006C632.514,340.184,633.058,340.107,633.056,340.039
									z"/>
							</g>
						</g>
						<g>
							<path style="fill:#FFFFFF;" d="M635.975,340.673c0.84-0.64-2.331,1.602-4.101,1.717c0,0,1.194,1.499,2.929,0.629
								C636.604,342.116,635.975,340.673,635.975,340.673z"/>
						</g>
						<g>
							<path style="fill:#EB996E;" d="M633.994,351.309c0,0,4.006-0.131,7.921-3.262c0,0-1.419,4.741-7.75,4.891L633.994,351.309z"
								/>
						</g>
					</g>
				</g>
				<path style="fill:#263238;" d="M642.519,320.346c-0.098,2.612-2.195,5.011-4.77,5.458c-1.539,0.267-3.236-0.073-4.591,0.703
					c-0.976,0.559-1.566,1.586-2.23,2.493c-0.665,0.907-1.574,1.793-2.699,1.816c-0.543,0.011-1.065-0.185-1.598-0.289
					c-0.532-0.104-1.138-0.099-1.553,0.25c-0.789-1.841-1.425-3.821-1.241-5.816c0.183-1.995,1.352-4.006,3.239-4.679
					c1.231-0.439,2.596-0.273,3.87-0.563c1.051-0.239,2.003-0.779,2.961-1.274c1.597-0.825,3.345-1.556,5.134-1.381
					c1.789,0.174,3.577,1.547,3.626,3.344"/>
				<path style="fill:#263238;" d="M642.514,318.416c1.721-0.916,3.88-0.954,5.633-0.1c1.752,0.854,3.053,2.579,3.392,4.498
					c0.294,1.667-0.021,3.619,1.147,4.845c0.654,0.686,1.694,1.021,2.094,1.881c0.529,1.138-0.331,2.67,0.438,3.661
					c0.628,0.809,1.969,0.712,2.643,1.483c0.588,0.672,0.426,1.69,0.594,2.568c0.269,1.406,1.4,2.453,2.326,3.546
					s1.723,2.579,1.178,3.903c-0.623,1.516-2.562,1.886-4.194,2.041c-3.733,0.354-7.467,0.709-11.2,1.063
					c-1.277,0.121-2.684,0.209-3.717-0.552c-1.107-0.815-1.407-2.355-1.308-3.727c0.2-2.755,1.639-5.323,1.723-8.083
					c0.067-2.215-0.744-4.351-1.542-6.418c-0.798-2.067-1.608-4.204-1.539-6.419c0.069-2.215,1.203-4.112,3.44-4.641"/>
				<g>
					<g>
						<path style="fill:#FFBE9D;" d="M648.55,332.115c-0.023-0.509,0.352-0.96,0.859-1.001c1.174-0.094,3.121,0.272,3.471,3.507
							c0.5,4.621-4.018,3.698-4.04,3.566C648.823,338.084,648.632,333.916,648.55,332.115z"/>
					</g>
					<g>
						<g>
							<path style="fill:#EB996E;" d="M649.766,336.312c0.019-0.017,0.087,0.048,0.229,0.095c0.139,0.046,0.372,0.064,0.603-0.053
								c0.469-0.232,0.796-1.052,0.728-1.887c-0.033-0.422-0.165-0.813-0.35-1.128c-0.178-0.323-0.422-0.535-0.672-0.552
								c-0.251-0.03-0.409,0.136-0.451,0.272c-0.048,0.136-0.009,0.225-0.032,0.235c-0.012,0.013-0.107-0.066-0.091-0.261
								c0.009-0.094,0.052-0.209,0.151-0.309c0.101-0.102,0.259-0.166,0.432-0.166c0.359-0.014,0.715,0.279,0.918,0.625
								c0.223,0.346,0.38,0.784,0.418,1.258c0.071,0.934-0.311,1.857-0.958,2.123c-0.316,0.12-0.598,0.051-0.75-0.043
								C649.786,336.423,649.751,336.322,649.766,336.312z"/>
						</g>
					</g>
				</g>
				<g>
					<path style="fill:#455A64;" d="M649.079,339.604c0.085-0.018,0.084,0.6,0.71,1.172c0.305,0.276,0.761,0.499,1.292,0.466
						c0.524-0.024,1.108-0.289,1.476-0.767c0.369-0.483,0.481-1.11,0.404-1.64c-0.072-0.536-0.339-0.975-0.624-1.283
						c-0.586-0.622-1.16-0.758-1.13-0.84c-0.003-0.054,0.64-0.059,1.387,0.576c0.359,0.314,0.722,0.816,0.84,1.468
						c0.121,0.638,0.009,1.413-0.464,2.036c-0.48,0.619-1.214,0.927-1.877,0.93c-0.677,0.013-1.246-0.322-1.565-0.685
						C648.861,340.268,649.027,339.571,649.079,339.604z"/>
				</g>
			</g>
		</g>
		<g>
			<path style="fill:#E8505B;" d="M663.205,405.858c-0.07,1.862-0.2,3.778-0.386,5.741c0.138,1.376,0.435,2.736,0.898,4.04
				c0.314,0.883,0.702,1.751,0.831,2.679c0.128,0.928-0.048,1.958-0.719,2.611c-0.505,0.491-1.254,0.744-1.593,1.362
				c-0.666,1.213,0.705,2.489,1.216,3.774c0.629,1.582-0.316,3.598-1.934,4.126c-0.653,0.213-1.358,0.156-1.998-0.084
				c-0.023,0.09-0.154,0.349-0.178,0.44l-30.224-25.8l2.605-2.393c0,0-0.535-1.472-1.378-3.787
				c-4.817,3.857-10.041,5.939-14.982,3.696c-15.389-6.986-29.248-29.744-29.248-29.744l6.779-7.634
				c0,0,21.572,22.738,25.266,21.083c1.182-0.529,3.357-3.219,5.766-6.626c3.257-4.508,4.259-7.695,10.067-21.381
				c4.334-0.13,10.93-1.981,15.734-3.649c0,0,7.278,4.668,8.666,15.727C659.397,378.03,663.205,405.858,663.205,405.858z"/>
			<g>
				<path style="fill:#263238;" d="M628.091,400.629c-0.06-0.078,1.387-1.154,3.45-3.187c1.04-1.007,2.194-2.29,3.419-3.759
					c1.204-1.487,2.46-3.177,3.691-5.014c2.445-3.687,4.378-7.207,5.784-9.75c0.664-1.2,1.223-2.208,1.668-3.012
					c0.401-0.708,0.638-1.092,0.669-1.075c0.032,0.016-0.144,0.432-0.49,1.168c-0.346,0.737-0.862,1.795-1.523,3.092
					c-1.324,2.59-3.213,6.152-5.676,9.866c-1.239,1.85-2.519,3.547-3.755,5.031c-1.257,1.466-2.451,2.736-3.533,3.718
					c-0.522,0.512-1.039,0.924-1.481,1.299c-0.438,0.38-0.836,0.681-1.169,0.918C628.486,400.406,628.113,400.658,628.091,400.629z"
					/>
			</g>
			<g>
				<path style="fill:#263238;" d="M641.221,360.56c-0.01,0.041-0.468-0.026-1.282-0.111c-0.814-0.02-2.029,0.029-3.344,0.659
					c-1.316,0.605-2.648,1.806-3.695,3.426c-0.547,0.806-0.932,1.719-1.36,2.72c-0.442,0.979-0.915,1.986-1.441,2.997
					c-2.077,4.062-4.464,7.454-6.33,9.777c-0.929,1.167-1.74,2.062-2.305,2.674c-0.577,0.602-0.908,0.922-0.935,0.898
					c-0.027-0.024,0.254-0.391,0.782-1.031c0.516-0.651,1.28-1.578,2.167-2.767c1.781-2.368,4.099-5.761,6.158-9.789
					c0.521-1.002,0.994-1.999,1.439-2.967c0.418-0.962,0.85-1.957,1.424-2.775c1.107-1.667,2.534-2.902,3.943-3.496
					c1.409-0.62,2.685-0.61,3.515-0.526C640.786,360.397,641.229,360.532,641.221,360.56z"/>
			</g>
		</g>
		<g>
			<g>
				<g>
					<g>
						<g>
							<g>
								<path style="fill:#263238;" d="M551.062,438.56l0.46-2.162l14.56,2.447l-1.265,6.263l-0.904-0.127
									c-4.017-0.599-20.383-3.329-22.872-4.682C538.265,438.79,551.062,438.56,551.062,438.56z"/>
							</g>
						</g>
					</g>
					<g>
						<g>
							<g>
								<path style="fill:#455A64;" d="M565.088,444.819c-0.001,0.006-0.088-0.002-0.253-0.024c-0.216-0.031-0.453-0.065-0.72-0.103
									c-0.717-0.116-1.599-0.258-2.64-0.426c-2.226-0.375-5.295-0.934-8.669-1.625c-3.375-0.692-6.417-1.385-8.611-1.916
									c-1.023-0.255-1.889-0.471-2.594-0.647c-0.26-0.07-0.491-0.132-0.702-0.188c-0.16-0.045-0.243-0.071-0.242-0.077
									c0.001-0.006,0.088,0.009,0.25,0.042c0.213,0.047,0.447,0.098,0.71,0.156c0.708,0.161,1.579,0.358,2.606,0.592
									c2.201,0.499,5.245,1.172,8.618,1.864c3.373,0.691,6.436,1.269,8.656,1.676c1.036,0.19,1.915,0.35,2.629,0.481
									c0.265,0.051,0.5,0.095,0.714,0.137C565.004,444.793,565.089,444.813,565.088,444.819z"/>
							</g>
						</g>
					</g>
					<g>
						<g>
							<g>
								<path style="fill:#455A64;" d="M545.614,441.225c-0.055-0.004,0.033-0.637-0.232-1.349
									c-0.252-0.717-0.725-1.147-0.686-1.185c0.019-0.041,0.581,0.357,0.853,1.124
									C545.831,440.58,545.655,441.245,545.614,441.225z"/>
							</g>
						</g>
					</g>
					<g>
						<g>
							<g>
								<path style="fill:#455A64;" d="M550.305,439.944c-0.046,0.017-0.198-0.272-0.34-0.646c-0.142-0.374-0.22-0.691-0.174-0.709
									c0.046-0.018,0.198,0.272,0.34,0.646C550.273,439.61,550.35,439.927,550.305,439.944z"/>
							</g>
						</g>
					</g>
					<g>
						<g>
							<g>
								<path style="fill:#455A64;" d="M551.597,439.568c-0.04,0.029-0.236-0.169-0.438-0.443c-0.202-0.274-0.334-0.52-0.294-0.549
									c0.04-0.029,0.236,0.169,0.438,0.443C551.504,439.293,551.636,439.539,551.597,439.568z"/>
							</g>
						</g>
					</g>
					<g>
						<g>
							<g>
								<path style="fill:#455A64;" d="M552.613,438.361c-0.009,0.048-0.354,0.022-0.771-0.059
									c-0.416-0.081-0.746-0.185-0.737-0.234c0.009-0.048,0.354-0.022,0.771,0.059
									C552.293,438.208,552.622,438.313,552.613,438.361z"/>
							</g>
						</g>
					</g>
					<g>
						<g>
							<g>
								<path style="fill:#455A64;" d="M553.063,437.455c0.007,0.046-0.393,0.136-0.888,0.071c-0.496-0.062-0.86-0.25-0.842-0.293
									c0.018-0.048,0.393,0.058,0.864,0.117C552.668,437.412,553.058,437.404,553.063,437.455z"/>
							</g>
						</g>
					</g>
					<g>
						<g>
							<g>
								<path style="fill:#455A64;" d="M550.074,438.588c-0.003,0.02-0.367-0.01-0.924-0.196c-0.278-0.093-0.601-0.23-0.94-0.42
									c-0.167-0.101-0.346-0.188-0.516-0.348c-0.079-0.08-0.163-0.187-0.17-0.334c-0.01-0.146,0.096-0.287,0.216-0.341
									c0.978-0.276,1.761,0.403,1.996,0.928c0.133,0.271,0.168,0.515,0.175,0.679c0.004,0.166-0.017,0.255-0.028,0.255
									c-0.035,0.005,0.012-0.377-0.259-0.876c-0.134-0.245-0.36-0.502-0.685-0.676c-0.307-0.164-0.766-0.286-1.118-0.152
									c-0.169,0.079-0.148,0.263-0.004,0.394c0.132,0.13,0.317,0.23,0.474,0.329c0.325,0.193,0.635,0.338,0.902,0.444
									C549.728,438.486,550.081,438.56,550.074,438.588z"/>
							</g>
						</g>
					</g>
					<g>
						<g>
							<g>
								<path style="fill:#455A64;" d="M549.826,438.585c-0.015,0.007-0.103-0.257,0.025-0.664c0.065-0.199,0.189-0.426,0.392-0.624
									c0.206-0.172,0.474-0.411,0.867-0.313c0.209,0.072,0.263,0.337,0.197,0.486c-0.05,0.159-0.152,0.283-0.242,0.381
									c-0.185,0.203-0.379,0.358-0.552,0.47c-0.348,0.224-0.6,0.285-0.606,0.266c-0.011-0.026,0.219-0.128,0.534-0.368
									c0.157-0.12,0.333-0.278,0.501-0.475c0.167-0.169,0.326-0.503,0.103-0.592c-0.227-0.07-0.511,0.112-0.69,0.267
									c-0.187,0.17-0.312,0.369-0.385,0.547C549.821,438.326,549.858,438.584,549.826,438.585z"/>
							</g>
						</g>
					</g>
					<g>
						<g>
							<g>
								<path style="fill:#455A64;" d="M565.604,440.82c-0.01,0.032-0.404-0.124-1.071-0.181c-0.659-0.061-1.61,0.019-2.517,0.479
									c-0.907,0.461-1.532,1.182-1.871,1.751c-0.347,0.572-0.453,0.982-0.485,0.972c-0.01-0.003,0.006-0.107,0.059-0.291
									c0.053-0.183,0.153-0.443,0.317-0.744c0.32-0.6,0.954-1.365,1.9-1.846c0.946-0.48,1.938-0.541,2.611-0.445
									c0.34,0.046,0.608,0.118,0.788,0.183C565.514,440.761,565.608,440.81,565.604,440.82z"/>
							</g>
						</g>
					</g>
					<g>
						<g>
							<g>
								<path style="fill:#455A64;" d="M558.099,442.142c-0.003,0.046-0.973,0.007-2.144-0.224c-1.173-0.228-2.085-0.558-2.07-0.602
									c0.015-0.049,0.943,0.201,2.105,0.427C557.149,441.972,558.104,442.09,558.099,442.142z"/>
							</g>
						</g>
					</g>
					<g>
						<g>
							<g>
								<path style="fill:#455A64;" d="M560.921,442.718c0.028,0.042-0.118,0.183-0.258,0.379c-0.143,0.194-0.232,0.376-0.281,0.363
									c-0.047-0.01-0.027-0.243,0.137-0.468C560.682,442.767,560.897,442.677,560.921,442.718z"/>
							</g>
						</g>
					</g>
					<g>
						<g>
							<g>
								<path style="fill:#455A64;" d="M562.256,441.613c0.027,0.041-0.096,0.172-0.276,0.292c-0.18,0.12-0.348,0.185-0.375,0.144
									c-0.027-0.041,0.096-0.172,0.276-0.292C562.061,441.637,562.229,441.573,562.256,441.613z"/>
							</g>
						</g>
					</g>
					<g>
						<g>
							<g>
								<path style="fill:#455A64;" d="M563.902,441.322c-0.02,0.047-0.211,0.006-0.438,0.037c-0.227,0.026-0.402,0.112-0.433,0.072
									c-0.033-0.034,0.13-0.214,0.411-0.248C563.723,441.146,563.926,441.28,563.902,441.322z"/>
							</g>
						</g>
					</g>
					<g>
						<g>
							<g>
								<path style="fill:#455A64;" d="M565.044,441.259c0.008,0.049-0.09,0.105-0.219,0.127c-0.129,0.022-0.24,0-0.249-0.048
									c-0.008-0.048,0.09-0.105,0.219-0.127C564.924,441.189,565.036,441.211,565.044,441.259z"/>
							</g>
						</g>
					</g>
				</g>
			</g>
		</g>
	</g>
</g>
<g id="Character_1">
	<g>
		<path style="fill:#263238;" d="M345.049,269.464c-3.555-0.178-7.14,1.701-9.016,4.725c-1.876,3.025-1.967,7.071-0.228,10.177
			c1.197,2.137,3.139,3.774,4.387,5.882c1.249,2.107,1.586,5.153-0.269,6.753c-1.756,1.515-4.604,1.018-6.44,2.435
			c-1.719,1.327-1.815,4.265-0.186,5.701c-2.753,0.531-4.308,3.914-3.477,6.592c0.832,2.677,3.462,4.502,6.205,5.079
			c2.743,0.578,5.596,0.107,8.322-0.547c-0.467,1.96,0.943,4.003,2.78,4.83c1.837,0.827,3.964,0.685,5.939,0.285
			c2.436-0.493,4.886-1.411,6.597-3.214c1.593-1.677,2.395-3.966,2.776-6.248c1.261-7.564-1.65-15.132-4.506-22.248"/>
		<g>
			<g>
				<g>
					<g>
						<g>
							<g>
								<path style="fill:#E8505B;" d="M524.66,366.228l-7.84-0.284l-0.626,14.683l11.466,0.537l0.097-0.908
									c0.398-4.042,1.737-20.58,1.031-23.324C528.001,353.873,524.66,366.228,524.66,366.228z"/>
							</g>
						</g>
					</g>
					<g style="opacity:0.4;">
						<g>
							<path style="fill:#FFFFFF;" d="M526.51,360.201c0,0,1.448-4.319,2.145-3.743c0.697,0.576-0.028,17.34-0.994,24.706
								l-0.327-0.038l1.012-19.546C528.345,361.58,526.509,361.057,526.51,360.201z"/>
						</g>
					</g>
					<g>
						<g>
							<g>
								<path style="fill:#263238;" d="M527.314,381.357c0.006,0,0.019-0.086,0.038-0.251c0.023-0.217,0.047-0.455,0.075-0.723
									c0.063-0.724,0.139-1.614,0.23-2.664c0.179-2.25,0.384-5.363,0.536-8.804c0.151-3.442,0.22-6.561,0.239-8.818
									c0.002-1.054,0.003-1.947,0.004-2.673c-0.004-0.27-0.008-0.509-0.011-0.727c-0.005-0.166-0.01-0.253-0.016-0.253
									c-0.006,0-0.013,0.087-0.02,0.253c-0.007,0.218-0.014,0.457-0.022,0.727c-0.017,0.726-0.037,1.618-0.061,2.672
									c-0.052,2.256-0.141,5.372-0.291,8.813c-0.152,3.439-0.337,6.551-0.483,8.803c-0.068,1.052-0.126,1.942-0.174,2.667
									c-0.016,0.269-0.029,0.508-0.042,0.726C527.309,381.269,527.308,381.356,527.314,381.357z"/>
							</g>
						</g>
					</g>
					<g>
						<g>
							<g>
								<path style="fill:#263238;" d="M528.573,361.594c0.009-0.054-0.626-0.123-1.252-0.553c-0.634-0.419-0.936-0.982-0.982-0.954
									c-0.045,0.009,0.205,0.65,0.883,1.102C527.894,361.648,528.582,361.639,528.573,361.594z"/>
							</g>
						</g>
					</g>
					<g>
						<g>
							<g>
								<path style="fill:#263238;" d="M526.188,365.831c0.028-0.04-0.215-0.258-0.543-0.487c-0.328-0.229-0.617-0.382-0.645-0.341
									c-0.028,0.04,0.215,0.258,0.543,0.487C525.871,365.719,526.16,365.872,526.188,365.831z"/>
							</g>
						</g>
					</g>
					<g>
						<g>
							<g>
								<path style="fill:#263238;" d="M525.508,366.993c0.038-0.031-0.107-0.27-0.323-0.532c-0.216-0.263-0.423-0.45-0.46-0.419
									c-0.038,0.031,0.107,0.27,0.323,0.533C525.264,366.836,525.47,367.024,525.508,366.993z"/>
							</g>
						</g>
					</g>
					<g>
						<g>
							<g>
								<path style="fill:#263238;" d="M524.089,367.685c0.049,0.003,0.108-0.338,0.131-0.762c0.023-0.423,0.002-0.769-0.047-0.771
									c-0.049-0.003-0.107,0.338-0.131,0.762C524.019,367.336,524.04,367.682,524.089,367.685z"/>
							</g>
						</g>
					</g>
					<g>
						<g>
							<g>
								<path style="fill:#263238;" d="M523.101,367.9c0.043,0.019,0.228-0.348,0.286-0.844c0.06-0.496-0.033-0.896-0.08-0.888
									c-0.051,0.006-0.039,0.396-0.097,0.867C523.156,367.507,523.053,367.883,523.101,367.9z"/>
							</g>
						</g>
					</g>
					<g>
						<g>
							<g>
								<path style="fill:#263238;" d="M524.928,365.278c0.02,0.002,0.08-0.358,0.035-0.944c-0.022-0.292-0.076-0.639-0.178-1.014
									c-0.058-0.187-0.098-0.381-0.212-0.585c-0.058-0.096-0.141-0.203-0.283-0.246c-0.14-0.045-0.302,0.024-0.383,0.127
									c-0.506,0.882-0.038,1.807,0.414,2.162c0.23,0.195,0.458,0.289,0.616,0.335c0.16,0.045,0.252,0.046,0.254,0.035
									c0.014-0.033-0.369-0.08-0.786-0.465c-0.205-0.19-0.4-0.472-0.489-0.829c-0.084-0.337-0.09-0.813,0.125-1.121
									c0.117-0.145,0.291-0.079,0.383,0.092c0.093,0.16,0.146,0.363,0.203,0.54c0.107,0.362,0.173,0.698,0.211,0.982
									C524.914,364.917,524.899,365.277,524.928,365.278z"/>
							</g>
						</g>
					</g>
					<g>
						<g>
							<g>
								<path style="fill:#263238;" d="M524.986,365.036c0.011-0.013-0.224-0.163-0.65-0.137c-0.209,0.014-0.46,0.08-0.7,0.228
									c-0.216,0.158-0.514,0.359-0.515,0.765c0.018,0.22,0.263,0.337,0.423,0.31c0.166-0.01,0.311-0.078,0.428-0.142
									c0.242-0.13,0.439-0.28,0.59-0.421c0.302-0.283,0.423-0.512,0.405-0.523c-0.022-0.018-0.177,0.181-0.487,0.428
									c-0.155,0.123-0.35,0.255-0.583,0.371c-0.205,0.121-0.567,0.194-0.6-0.044c-0.013-0.237,0.233-0.468,0.427-0.604
									c0.211-0.139,0.434-0.212,0.625-0.24C524.736,364.968,524.977,365.067,524.986,365.036z"/>
							</g>
						</g>
					</g>
					<g>
						<g>
							<g>
								<path style="fill:#263238;" d="M523.31,380.884c0.033-0.002-0.022-0.422,0.085-1.083c0.101-0.654,0.411-1.557,1.078-2.324
									c0.669-0.767,1.52-1.198,2.154-1.389c0.639-0.197,1.063-0.2,1.06-0.234c0-0.011-0.106-0.021-0.296-0.013
									c-0.191,0.007-0.467,0.041-0.799,0.126c-0.66,0.164-1.557,0.593-2.254,1.393c-0.696,0.8-0.996,1.747-1.068,2.424
									c-0.039,0.34-0.034,0.619-0.014,0.808C523.275,380.782,523.299,380.885,523.31,380.884z"/>
							</g>
						</g>
					</g>
					<g>
						<g>
							<g>
								<path style="fill:#263238;" d="M517.266,379.098c-0.003,0.049,1.345,0.165,3.01,0.258c1.666,0.093,3.018,0.129,3.02,0.08
									s-1.345-0.164-3.01-0.258C518.621,379.084,517.268,379.049,517.266,379.098z"/>
							</g>
						</g>
					</g>
					<g>
						<g>
							<g>
								<path style="fill:#263238;" d="M526.42,373.926c0.046,0.008,0.244-0.942,0.305-2.134c0.065-1.193-0.033-2.158-0.079-2.155
									c-0.052,0.003-0.035,0.964-0.099,2.145C526.487,372.964,526.369,373.918,526.42,373.926z"/>
							</g>
						</g>
					</g>
					<g>
						<g>
							<g>
								<path style="fill:#263238;" d="M526.292,376.804c0.034,0.037,0.207-0.07,0.431-0.158c0.223-0.092,0.421-0.134,0.42-0.184
									c0.002-0.048-0.229-0.086-0.487,0.019C526.397,376.583,526.257,376.77,526.292,376.804z"/>
							</g>
						</g>
					</g>
					<g>
						<g>
							<g>
								<path style="fill:#263238;" d="M524.895,377.83c0.033,0.036,0.19-0.052,0.35-0.197c0.161-0.145,0.264-0.293,0.231-0.329
									c-0.033-0.036-0.19,0.052-0.351,0.197C524.966,377.646,524.862,377.793,524.895,377.83z"/>
							</g>
						</g>
					</g>
					<g>
						<g>
							<g>
								<path style="fill:#263238;" d="M524.211,379.355c0.05-0.008,0.057-0.203,0.142-0.416c0.08-0.214,0.207-0.363,0.175-0.403
									c-0.025-0.041-0.24,0.074-0.341,0.338C524.084,379.138,524.165,379.368,524.211,379.355z"/>
							</g>
						</g>
					</g>
					<g>
						<g>
							<g>
								<path style="fill:#263238;" d="M523.873,380.447c0.045,0.02,0.124-0.061,0.177-0.181c0.053-0.12,0.059-0.233,0.014-0.253
									c-0.045-0.02-0.124,0.061-0.177,0.181C523.834,380.314,523.828,380.427,523.873,380.447z"/>
							</g>
						</g>
					</g>
				</g>
			</g>
			<polygon style="opacity:0.3;" points="522.917,380.847 523.307,366.169 521.538,366.115 521.983,380.923 			"/>
		</g>
		<path style="fill:#B78876;" d="M432.735,302.56l0.811-2.549c0,0,0.739-1.462,1.449-4.258c0.184-0.725,0.237-1.478,0.167-2.223
			c-0.084-0.904-0.244-2.1-0.535-2.727c-0.36-0.777,0.411-1.587,1.091-1.211c0.681,0.376,1.726,2.491,1.733,5.248
			c0.008,2.756,2.735-0.616,3.751-1.827c1.016-1.211,4.335-4.811,4.955-4.794c0.909,0.025,1.049,1.004,0.006,2.19
			c-1.056,1.2-3.92,4.963-3.254,5.469c0.656,0.498,5.744-5.738,5.744-5.738s0.872-1.509,1.66-0.95
			c1.422,1.008-4.475,7.239-5.051,7.819c-0.4,0.403,0.303,0.978,0.71,0.523c0.419-0.469,4.93-6.339,6.388-5.327
			c1.119,0.777-4.803,5.171-5.062,6.909c-0.259,1.738,4.152-3.789,5.19-3.003c0.387,0.293,0.634,0.564-2.357,3.373
			c-3.064,2.876-12.632,9.316-12.632,9.316l-4.766-6.397"/>
		<path style="fill:#B78876;" d="M339.881,375.184c0,0-4.774,6.047-15.118,5.888c0,0-1.75,1.75,0.955,1.75
			c2.705,0,15.277,1.432,17.664-1.114c0,0,8.275,1.91,12.094,0.637c0,0-5.411-0.477-6.365-1.91c-0.955-1.432,0-7.002,0-7.002
			l-4.933-3.183L339.881,375.184z"/>
		<g>
			<path style="fill:#455A64;" d="M434.118,298.377c0,0-20.543,28.604-38.87,2.363c-10.801-15.465-20.131-12.393-20.135-12.392
				l-3.624,0.391l-14.211,3.996c0,0-3.213,0.834-6.2,2.297l-0.001-0.003c0,0-12.712,2.784-11.739,25.942l-2.753,56.975l14.958,2.086
				l3.844-56.95c2.935,5.784,9.041,17.707,9.404,17.529c0.48-0.235,1.02,15.931,1.02,15.931l33.291-6.413l1.031-6.108l-9.529-20.905
				c0,0,0.978-1.421,1.51-3.584c4.63,3.794,10.391,6.286,17.5,6.045c24.448-0.828,33.11-19.216,33.11-19.216L434.118,298.377z"/>
			<g>
				<path style="fill:#263238;" d="M390.605,323.118c-0.078-0.029,0.331-1.112,0.883-2.877c0.518-1.735,1.191-4.336,0.354-6.995
					c-0.415-1.311-1.244-2.374-2.131-3.172c-0.896-0.801-1.845-1.361-2.653-1.798c-1.635-0.855-2.719-1.262-2.686-1.344
					c0.012-0.032,0.295,0.033,0.791,0.196c0.496,0.163,1.21,0.418,2.06,0.819c0.846,0.404,1.844,0.945,2.805,1.767
					c0.951,0.817,1.862,1.957,2.309,3.371c0.457,1.404,0.468,2.827,0.312,4.067c-0.163,1.247-0.497,2.324-0.811,3.205
					c-0.318,0.882-0.622,1.573-0.841,2.047C390.777,322.877,390.638,323.132,390.605,323.118z"/>
			</g>
			<g>
				<path style="fill:#263238;" d="M378.241,317.272c0.03-0.01,0.14,0.216,0.267,0.649c0.129,0.432,0.252,1.081,0.274,1.893
					c0.06,1.604-0.43,3.959-2.062,5.897c-1.642,1.93-3.885,2.802-5.477,3.007c-0.805,0.112-1.465,0.098-1.912,0.042
					c-0.448-0.055-0.688-0.125-0.684-0.157c0.007-0.096,0.998,0.059,2.534-0.248c1.515-0.289,3.603-1.171,5.142-2.98
					c1.53-1.816,2.056-4.021,2.091-5.562C378.464,318.247,378.148,317.294,378.241,317.272z"/>
			</g>
			<g>
				<path style="fill:#263238;" d="M384.754,304.903c-0.068,0.033-0.562-0.856-1.355-2.29c-0.793-1.435-1.897-3.41-3.178-5.556
					c-1.283-2.145-2.499-4.054-3.386-5.432c-0.887-1.379-1.435-2.235-1.374-2.279c0.056-0.04,0.71,0.741,1.678,2.071
					c0.969,1.33,2.24,3.217,3.53,5.373c1.287,2.156,2.346,4.17,3.058,5.654C384.438,303.927,384.816,304.873,384.754,304.903z"/>
			</g>
			<g>
				<path style="fill:#263238;" d="M347.262,299.535c-0.006-0.024,0.385-0.163,1.126-0.161c0.733,0.013,1.827,0.223,2.965,0.921
					c1.143,0.683,2.256,1.9,3.02,3.473c0.78,1.571,1.234,3.445,1.513,5.415c0.525,3.969,0.118,7.581-0.205,10.144
					c-0.173,1.285-0.343,2.32-0.471,3.033c-0.13,0.713-0.219,1.104-0.255,1.099c-0.036-0.005-0.014-0.406,0.054-1.127
					c0.083-0.831,0.186-1.849,0.306-3.048c0.23-2.565,0.57-6.145,0.055-10.031c-0.274-1.933-0.705-3.762-1.429-5.276
					c-0.713-1.519-1.728-2.684-2.786-3.371c-1.055-0.701-2.077-0.955-2.779-1.029C347.668,299.514,347.269,299.581,347.262,299.535z
					"/>
			</g>
			<g>
				<path style="fill:#FFFFFF;" d="M356.93,318.046c-0.063-0.058,0.812-1.114,2.226-2.713l0.134-0.151l0.158,0.136
					c0.815,0.704,1.721,1.485,2.689,2.321l-0.366,0.027c0.337-0.406,0.684-0.824,1.04-1.252c0.392-0.466,0.774-0.92,1.144-1.36
					l0.174-0.207l0.194,0.182c0.863,0.81,1.671,1.568,2.409,2.261l-0.303,0.019c1.454-1.637,2.428-2.664,2.494-2.608
					c0.066,0.056-0.791,1.183-2.173,2.881l-0.136,0.167l-0.167-0.148c-0.757-0.673-1.584-1.409-2.469-2.196l0.367-0.025
					c-0.367,0.442-0.746,0.898-1.135,1.367c-0.358,0.426-0.708,0.842-1.047,1.246l-0.172,0.204l-0.194-0.177
					c-0.946-0.861-1.83-1.667-2.626-2.392l0.291-0.014C357.978,317.15,356.993,318.104,356.93,318.046z"/>
			</g>
			<g>
				<path style="fill:#FFFFFF;" d="M374.461,344.156c-0.078,0.034-0.688-1.194-1.574-3.137l-0.084-0.183l0.189-0.089
					c0.974-0.459,2.056-0.969,3.214-1.514l-0.124,0.345c-0.234-0.473-0.474-0.96-0.721-1.459c-0.267-0.547-0.526-1.081-0.778-1.598
					l-0.118-0.243l0.245-0.103c1.091-0.46,2.112-0.889,3.045-1.282l-0.106,0.284c-0.905-1.994-1.447-3.301-1.369-3.339
					c0.078-0.038,0.759,1.204,1.749,3.156l0.098,0.193l-0.203,0.092c-0.922,0.418-1.931,0.875-3.01,1.363l0.127-0.346
					c0.255,0.515,0.518,1.047,0.788,1.593c0.244,0.5,0.482,0.989,0.713,1.463l0.117,0.24l-0.241,0.106
					c-1.171,0.514-2.267,0.995-3.253,1.428l0.105-0.272C374.069,342.835,374.54,344.123,374.461,344.156z"/>
			</g>
			<g>
				<path style="fill:#FFFFFF;" d="M388.162,346.243c-0.078,0.034-0.688-1.194-1.574-3.136l-0.084-0.183l0.189-0.089
					c0.974-0.459,2.056-0.969,3.214-1.514l-0.124,0.345c-0.234-0.473-0.474-0.96-0.721-1.459c-0.267-0.547-0.526-1.081-0.778-1.598
					l-0.118-0.243l0.245-0.103c1.091-0.459,2.112-0.889,3.045-1.282l-0.106,0.284c-0.905-1.994-1.447-3.301-1.369-3.339
					c0.078-0.037,0.759,1.204,1.749,3.156l0.098,0.193l-0.203,0.092c-0.923,0.418-1.932,0.875-3.01,1.363l0.127-0.346
					c0.255,0.515,0.518,1.047,0.788,1.593c0.244,0.5,0.482,0.989,0.713,1.463l0.117,0.24l-0.241,0.106
					c-1.171,0.514-2.267,0.995-3.253,1.428l0.105-0.272C387.77,344.922,388.241,346.21,388.162,346.243z"/>
			</g>
			<g>
				<path style="fill:#FFFFFF;" d="M385.56,319.697c-0.038,0.077-1.3-0.457-3.238-1.353l-0.183-0.085l0.085-0.191
					c0.44-0.983,0.929-2.075,1.451-3.242l0.131,0.343c-0.485-0.206-0.985-0.419-1.497-0.637c-0.559-0.242-1.103-0.477-1.631-0.705
					l-0.248-0.107l0.119-0.238c0.528-1.06,1.023-2.051,1.474-2.957l0.105,0.285c-1.985-0.923-3.249-1.561-3.214-1.641
					c0.035-0.079,1.36,0.418,3.384,1.254l0.2,0.082l-0.094,0.202c-0.427,0.918-0.895,1.922-1.395,2.995l-0.129-0.345
					c0.529,0.225,1.075,0.457,1.635,0.695c0.511,0.221,1.01,0.436,1.494,0.645l0.245,0.106l-0.114,0.237
					c-0.554,1.153-1.071,2.232-1.537,3.203l-0.097-0.275C384.401,318.95,385.598,319.62,385.56,319.697z"/>
			</g>
			<g>
				<path style="fill:#FFFFFF;" d="M410.213,317.876c0.03,0.08-1.224,0.634-3.204,1.431l-0.187,0.075l-0.08-0.193
					c-0.414-0.994-0.875-2.098-1.367-3.279l0.34,0.139c-0.483,0.212-0.98,0.431-1.49,0.654c-0.559,0.241-1.103,0.477-1.631,0.705
					l-0.248,0.107l-0.092-0.249c-0.41-1.111-0.793-2.15-1.144-3.1l0.279,0.118c-2.033,0.814-3.363,1.297-3.397,1.217
					c-0.034-0.08,1.237-0.704,3.232-1.605l0.197-0.089l0.083,0.207c0.376,0.94,0.787,1.969,1.226,3.068l-0.34-0.142
					c0.526-0.231,1.069-0.47,1.627-0.715c0.511-0.221,1.01-0.437,1.494-0.646l0.245-0.106l0.095,0.245
					c0.461,1.193,0.892,2.309,1.28,3.314l-0.267-0.117C408.875,318.208,410.183,317.796,410.213,317.876z"/>
			</g>
			<g>
				<path style="fill:#FFFFFF;" d="M346.096,354.851c0.079-0.031,0.648,1.216,1.47,3.187l0.077,0.186l-0.192,0.083
					c-0.989,0.426-2.087,0.9-3.262,1.407l0.135-0.341c0.218,0.48,0.442,0.975,0.672,1.482c0.248,0.556,0.49,1.097,0.724,1.622
					l0.11,0.246l-0.248,0.095c-1.106,0.423-2.14,0.819-3.086,1.181l0.115-0.281c0.838,2.023,1.337,3.347,1.258,3.382
					c-0.079,0.035-0.719-1.228-1.644-3.212l-0.091-0.196l0.206-0.085c0.936-0.387,1.959-0.81,3.053-1.263l-0.138,0.341
					c-0.238-0.523-0.483-1.064-0.734-1.618c-0.227-0.508-0.449-1.004-0.664-1.486l-0.109-0.244l0.244-0.098
					c1.188-0.475,2.298-0.919,3.298-1.319l-0.114,0.268C346.445,356.185,346.017,354.882,346.096,354.851z"/>
			</g>
			<g>
				<path style="fill:#FFFFFF;" d="M349.941,306.971c0.079-0.031,0.648,1.216,1.47,3.187l0.077,0.186l-0.192,0.083
					c-0.989,0.426-2.087,0.9-3.262,1.407l0.135-0.341c0.218,0.48,0.442,0.975,0.672,1.482c0.248,0.556,0.49,1.098,0.724,1.623
					l0.11,0.247l-0.248,0.095c-1.106,0.423-2.14,0.819-3.086,1.181l0.115-0.281c0.838,2.022,1.337,3.347,1.258,3.382
					c-0.079,0.035-0.719-1.228-1.644-3.212l-0.091-0.196l0.206-0.085c0.936-0.387,1.959-0.81,3.053-1.263l-0.138,0.341
					c-0.238-0.523-0.483-1.064-0.734-1.618c-0.227-0.508-0.449-1.004-0.664-1.486l-0.109-0.244l0.244-0.098
					c1.188-0.475,2.298-0.919,3.298-1.32l-0.114,0.268C350.29,308.305,349.862,307.002,349.941,306.971z"/>
			</g>
			<g>
				<path style="fill:#FFFFFF;" d="M428.523,311.597c0.082,0.024-0.232,1.359-0.789,3.419l-0.053,0.194l-0.202-0.052
					c-1.043-0.268-2.201-0.566-3.44-0.885l0.316-0.187c-0.122,0.513-0.247,1.042-0.376,1.583c-0.144,0.591-0.284,1.168-0.421,1.726
					l-0.064,0.262l-0.254-0.077c-1.133-0.342-2.194-0.663-3.163-0.956l0.263-0.152c-0.576,2.112-0.992,3.465-1.076,3.444
					s0.183-1.411,0.667-3.546l0.048-0.211l0.215,0.059c0.977,0.267,2.045,0.559,3.187,0.871l-0.318,0.185
					c0.133-0.559,0.27-1.137,0.41-1.729c0.132-0.541,0.26-1.069,0.385-1.581l0.063-0.259l0.253,0.072
					c1.23,0.352,2.38,0.68,3.415,0.976l-0.255,0.142C427.982,312.865,428.441,311.573,428.523,311.597z"/>
			</g>
			<g>
				<path style="fill:#FFFFFF;" d="M375.237,304.344c0.018,0.083-1.303,0.449-3.378,0.951l-0.196,0.047l-0.052-0.202
					c-0.266-1.043-0.561-2.203-0.877-3.442l0.316,0.187c-0.508,0.14-1.033,0.284-1.569,0.431c-0.588,0.158-1.161,0.312-1.716,0.461
					l-0.261,0.07l-0.055-0.26c-0.244-1.158-0.473-2.242-0.682-3.233l0.259,0.158c-2.129,0.51-3.516,0.795-3.538,0.711
					c-0.022-0.084,1.326-0.517,3.431-1.119l0.208-0.059l0.052,0.217c0.235,0.985,0.493,2.062,0.768,3.214l-0.315-0.19
					c0.554-0.153,1.126-0.31,1.713-0.471c0.538-0.145,1.062-0.285,1.572-0.422l0.258-0.069l0.058,0.256
					c0.283,1.248,0.547,2.414,0.785,3.464l-0.247-0.155C373.865,304.479,375.219,304.261,375.237,304.344z"/>
			</g>
			<g>
				<path style="fill:#FFFFFF;" d="M349.766,342.908c-0.049,0.07-1.21-0.66-2.979-1.855l-0.167-0.113l0.115-0.174
					c0.592-0.9,1.249-1.899,1.952-2.967l0.075,0.359c-0.446-0.282-0.905-0.572-1.376-0.869c-0.513-0.328-1.013-0.648-1.497-0.958
					l-0.228-0.145l0.155-0.216c0.691-0.961,1.338-1.86,1.929-2.682l0.058,0.298c-1.812-1.229-2.957-2.062-2.909-2.135
					c0.047-0.073,1.275,0.631,3.139,1.781l0.184,0.113l-0.125,0.185c-0.569,0.837-1.192,1.754-1.857,2.733l-0.072-0.361
					c0.486,0.307,0.988,0.623,1.503,0.948c0.469,0.3,0.927,0.593,1.371,0.877l0.225,0.144l-0.15,0.216
					c-0.731,1.05-1.415,2.031-2.031,2.915l-0.052-0.287C348.742,341.985,349.816,342.838,349.766,342.908z"/>
			</g>
			<g>
				<path style="fill:#FFFFFF;" d="M393.702,302.24c0.012,0.085-1.331,0.357-3.436,0.713l-0.199,0.034l-0.037-0.206
					c-0.192-1.059-0.406-2.236-0.635-3.495l0.302,0.208c-0.517,0.104-1.05,0.211-1.595,0.321c-0.598,0.116-1.18,0.23-1.744,0.34
					l-0.265,0.052l-0.037-0.263c-0.163-1.173-0.315-2.27-0.455-3.273l0.248,0.175c-2.16,0.361-3.563,0.548-3.579,0.463
					c-0.016-0.085,1.358-0.424,3.5-0.877l0.211-0.045l0.037,0.22c0.166,0.999,0.348,2.092,0.542,3.259l-0.301-0.212
					c0.564-0.113,1.145-0.23,1.742-0.351c0.546-0.107,1.08-0.211,1.597-0.312l0.262-0.051l0.04,0.26
					c0.195,1.264,0.378,2.446,0.542,3.511l-0.236-0.172C392.324,302.279,393.69,302.156,393.702,302.24z"/>
			</g>
		</g>
		<g>
			<path style="fill:#263238;" d="M405.925,361.738c12.517-3.661,26.944-5.896,54.446-5.194c32.358,0.827,61.147,5.959,61.147,5.959
				l1.075,18.83l-59.988-5.261l-74.174,7.35L405.925,361.738z"/>
			<path style="fill:#263238;" d="M442.725,336.829c1.285-0.387,34.963,44.71,34.963,44.71l20.129-11.289
				c0,0-34.33-49.741-49.614-58.788c-10.754-6.366-41.661,24.339-58.397,38.172l-23.994,6.909c0,0,0.358,6.393,3.024,13.467
				c5.185,13.762,22.686,17.869,33.5,7.903L442.725,336.829z"/>
			<g>
				<path style="fill:#455A64;" d="M390.861,348.666c0.046,0.055-0.877,0.905-2.407,2.235c-1.53,1.33-3.667,3.14-6.048,5.114
					c-2.381,1.975-4.555,3.739-6.144,4.996c-1.589,1.256-2.593,2.004-2.637,1.947c-0.044-0.057,0.881-0.909,2.411-2.238
					s3.665-3.138,6.044-5.111c2.378-1.972,4.549-3.735,6.138-4.991C389.808,349.361,390.815,348.611,390.861,348.666z"/>
			</g>
			<g>
				<path style="fill:#455A64;" d="M421.235,357.746c0.025,0.025-0.366,0.478-1.097,1.274c-0.8,0.853-1.854,1.978-3.129,3.337
					c-2.658,2.801-6.356,6.649-10.463,10.87c-2.05,2.102-3.957,4.192-5.976,5.804c-2.02,1.608-4.123,2.689-5.977,3.284
					c-1.848,0.631-3.415,0.843-4.484,0.998c-1.079,0.105-1.675,0.145-1.679,0.109c-0.027-0.14,2.415-0.192,6.042-1.455
					c1.807-0.63,3.835-1.716,5.798-3.31c1.963-1.6,3.844-3.68,5.905-5.794c4.111-4.225,7.847-8.029,10.573-10.764
					c1.323-1.312,2.417-2.398,3.247-3.221C420.769,358.125,421.21,357.721,421.235,357.746z"/>
			</g>
		</g>
		<g>
			<g>
				<g>
					<g>
						<g>
							<g>
								<path style="fill:#E8505B;" d="M496.729,373.537l-1.17-2.019l-12.869,7.217l2.993,5.293l0.82-0.401
									c3.633-1.815,18.346-9.487,20.292-11.544C508.966,369.787,496.729,373.537,496.729,373.537z"/>
							</g>
						</g>
					</g>
					<g style="opacity:0.4;">
						<g>
							<path style="fill:#FFFFFF;" d="M502.816,371.893c0,0,4.426-1.074,4.31-0.177c-0.117,0.897-14.693,9.208-21.443,12.312
								l-0.142-0.297l17.085-9.55C502.625,374.181,502.091,372.349,502.816,371.893z"/>
						</g>
					</g>
					<g>
						<g>
							<g>
								<path style="fill:#263238;" d="M485.336,383.837c0.003,0.005,0.083-0.03,0.233-0.101c0.196-0.097,0.41-0.202,0.652-0.321
									c0.646-0.332,1.44-0.741,2.377-1.223c2-1.047,4.744-2.53,7.738-4.234c2.994-1.705,5.671-3.307,7.592-4.492
									c0.893-0.56,1.65-1.034,2.265-1.42c0.226-0.147,0.426-0.277,0.609-0.397c0.138-0.092,0.209-0.143,0.206-0.148
									c-0.003-0.005-0.081,0.036-0.225,0.118c-0.188,0.111-0.394,0.231-0.627,0.368c-0.623,0.372-1.39,0.83-2.294,1.371
									c-1.937,1.157-4.622,2.741-7.615,4.445c-2.992,1.703-5.725,3.202-7.709,4.278c-0.926,0.502-1.711,0.927-2.35,1.273
									c-0.236,0.13-0.445,0.246-0.637,0.351C485.408,383.786,485.333,383.832,485.336,383.837z"/>
							</g>
						</g>
					</g>
					<g>
						<g>
							<g>
								<path style="fill:#263238;" d="M502.735,374.381c0.051-0.021-0.229-0.596-0.198-1.355c0.018-0.76,0.334-1.315,0.284-1.339
									c-0.031-0.033-0.441,0.519-0.462,1.334C502.328,373.835,502.702,374.413,502.735,374.381z"/>
							</g>
						</g>
					</g>
					<g>
						<g>
							<g>
								<path style="fill:#263238;" d="M497.878,374.618c0.049,0.002,0.104-0.32,0.123-0.719c0.019-0.4-0.005-0.725-0.055-0.728
									c-0.049-0.002-0.104,0.32-0.123,0.719C497.805,374.29,497.829,374.616,497.878,374.618z"/>
							</g>
						</g>
					</g>
					<g>
						<g>
							<g>
								<path style="fill:#263238;" d="M496.533,374.661c0.047,0.015,0.172-0.234,0.279-0.557c0.107-0.323,0.156-0.597,0.11-0.613
									c-0.047-0.015-0.172,0.234-0.279,0.557C496.535,374.371,496.486,374.646,496.533,374.661z"/>
							</g>
						</g>
					</g>
					<g>
						<g>
							<g>
								<path style="fill:#263238;" d="M495.192,373.829c0.024,0.043,0.344-0.089,0.715-0.295c0.371-0.206,0.652-0.408,0.628-0.451
									c-0.024-0.043-0.344,0.089-0.714,0.295C495.45,373.584,495.168,373.786,495.192,373.829z"/>
							</g>
						</g>
					</g>
					<g>
						<g>
							<g>
								<path style="fill:#263238;" d="M494.483,373.107c0.007,0.046,0.416,0.008,0.867-0.208c0.452-0.213,0.74-0.505,0.709-0.54
									c-0.032-0.04-0.356,0.177-0.785,0.379C494.846,372.943,494.473,373.057,494.483,373.107z"/>
							</g>
						</g>
					</g>
					<g>
						<g>
							<g>
								<path style="fill:#263238;" d="M497.676,373.258c0.009,0.018,0.346-0.123,0.817-0.473c0.235-0.174,0.5-0.405,0.764-0.691
									c0.127-0.148,0.27-0.286,0.382-0.491c0.05-0.101,0.097-0.228,0.058-0.371c-0.036-0.142-0.181-0.243-0.311-0.257
									c-1.016,0.041-1.55,0.93-1.61,1.501c-0.042,0.298-0.001,0.542,0.044,0.7c0.047,0.159,0.095,0.238,0.105,0.234
									c0.035-0.006-0.129-0.355-0.025-0.913c0.052-0.274,0.187-0.589,0.441-0.855c0.241-0.251,0.64-0.509,1.016-0.491
									c0.185,0.022,0.222,0.204,0.126,0.373c-0.085,0.164-0.23,0.317-0.349,0.46c-0.25,0.284-0.499,0.518-0.719,0.702
									C497.974,373.053,497.662,373.232,497.676,373.258z"/>
							</g>
						</g>
					</g>
					<g>
						<g>
							<g>
								<path style="fill:#263238;" d="M497.912,373.177c0.017,0.002,0.018-0.276-0.23-0.624c-0.123-0.17-0.312-0.347-0.566-0.471
									c-0.249-0.099-0.578-0.244-0.921-0.029c-0.176,0.133-0.146,0.402-0.037,0.523c0.097,0.135,0.232,0.222,0.349,0.287
									c0.239,0.135,0.471,0.223,0.67,0.275c0.401,0.105,0.658,0.085,0.659,0.064c0.003-0.028-0.247-0.054-0.622-0.185
									c-0.187-0.066-0.403-0.161-0.624-0.297c-0.211-0.109-0.466-0.376-0.282-0.531c0.194-0.137,0.52-0.052,0.739,0.04
									c0.23,0.104,0.411,0.254,0.536,0.401C497.836,372.93,497.881,373.186,497.912,373.177z"/>
							</g>
						</g>
					</g>
					<g>
						<g>
							<g>
								<path style="fill:#263238;" d="M483.605,380.196c0.019,0.027,0.346-0.243,0.962-0.504c0.608-0.262,1.536-0.481,2.541-0.325
									c1.005,0.158,1.823,0.649,2.322,1.084c0.507,0.436,0.735,0.793,0.762,0.773c0.009-0.006-0.039-0.1-0.146-0.258
									c-0.107-0.158-0.283-0.374-0.532-0.609c-0.49-0.471-1.331-1.002-2.379-1.166c-1.048-0.163-2.01,0.087-2.62,0.386
									c-0.309,0.149-0.542,0.301-0.692,0.418C483.672,380.112,483.598,380.187,483.605,380.196z"/>
							</g>
						</g>
					</g>
					<g>
						<g>
							<g>
								<path style="fill:#263238;" d="M481.898,374.129c-0.043,0.024,0.577,1.226,1.385,2.685c0.808,1.46,1.497,2.623,1.54,2.599
									c0.043-0.024-0.577-1.226-1.385-2.685C482.631,375.268,481.941,374.105,481.898,374.129z"/>
							</g>
						</g>
					</g>
					<g>
						<g>
							<g>
								<path style="fill:#263238;" d="M491.15,379.125c0.017,0.043,0.927-0.295,1.969-0.878c1.044-0.58,1.809-1.177,1.782-1.214
									c-0.03-0.042-0.834,0.484-1.868,1.059C492,378.669,491.129,379.077,491.15,379.125z"/>
							</g>
						</g>
					</g>
					<g>
						<g>
							<g>
								<path style="fill:#263238;" d="M488.646,380.548c-0.013,0.049,0.169,0.138,0.363,0.281c0.196,0.14,0.337,0.286,0.38,0.258
									c0.041-0.024-0.049-0.239-0.275-0.402C488.888,380.52,488.655,380.501,488.646,380.548z"/>
							</g>
						</g>
					</g>
					<g>
						<g>
							<g>
								<path style="fill:#263238;" d="M487.033,379.912c-0.013,0.047,0.145,0.133,0.353,0.192c0.208,0.059,0.388,0.068,0.402,0.02
									c0.013-0.047-0.145-0.133-0.353-0.192C487.227,379.874,487.047,379.865,487.033,379.912z"/>
							</g>
						</g>
					</g>
					<g>
						<g>
							<g>
								<path style="fill:#263238;" d="M485.378,380.145c0.034,0.038,0.202-0.06,0.428-0.101c0.224-0.046,0.417-0.018,0.434-0.066
									c0.021-0.043-0.19-0.163-0.468-0.109C485.494,379.922,485.343,380.113,485.378,380.145z"/>
							</g>
						</g>
					</g>
					<g>
						<g>
							<g>
								<path style="fill:#263238;" d="M484.274,380.44c0.007,0.049,0.118,0.072,0.247,0.053c0.129-0.019,0.228-0.074,0.221-0.123
									c-0.007-0.048-0.118-0.072-0.247-0.053C484.365,380.336,484.266,380.391,484.274,380.44z"/>
							</g>
						</g>
					</g>
				</g>
			</g>
			<polygon style="opacity:0.3;" points="483.427,379.844 496.059,372.359 495.163,370.834 482.864,379.094 			"/>
		</g>
		<g>
			<g>
				<g>
					<g>
						<path style="fill:#B78876;" d="M364.041,300.408L364.041,300.408c4.831-1.023,7.571-6.154,5.738-10.738
							c-1.242-3.106-2.357-5.819-2.357-5.819s5.974-2.591,4.428-8.836c-1.546-6.245-6.352-20.258-6.352-20.258l0,0
							c-8.013-1.218-16.058,1.995-21.026,8.4l1.698,2.892l8.601,28.849C355.954,298.869,359.988,301.266,364.041,300.408z"/>
					</g>
					<g>
						<g>
							<path style="fill:#263238;" d="M366.917,267.106c-0.457-0.239-0.634-0.803-0.395-1.261c0.239-0.457,0.803-0.634,1.261-0.395
								c0.457,0.239,0.634,0.803,0.395,1.261C367.939,267.168,367.375,267.345,366.917,267.106z"/>
						</g>
						<g>
							<g>
								<path style="fill:#263238;" d="M368.146,264.63c-0.069,0.133-0.803-0.178-1.662,0.042c-0.862,0.207-1.365,0.825-1.489,0.739
									c-0.059-0.037-0.013-0.257,0.205-0.534c0.213-0.275,0.619-0.592,1.155-0.725c0.536-0.133,1.043-0.042,1.359,0.102
									C368.037,264.398,368.18,264.57,368.146,264.63z"/>
							</g>
						</g>
					</g>
					<g>
						<g>
							<path style="fill:#263238;" d="M358.561,267.986c0.493,0.151,0.771,0.673,0.621,1.166c-0.151,0.493-0.673,0.771-1.166,0.621
								c-0.493-0.151-0.771-0.673-0.621-1.166C357.546,268.114,358.068,267.836,358.561,267.986z"/>
						</g>
						<g>
							<g>
								<path style="fill:#263238;" d="M359.039,267.822c-0.069,0.133-0.803-0.178-1.661,0.042
									c-0.862,0.207-1.365,0.824-1.489,0.739c-0.059-0.037-0.013-0.256,0.205-0.534c0.213-0.275,0.619-0.592,1.155-0.725
									c0.536-0.133,1.043-0.042,1.359,0.101C358.93,267.59,359.074,267.762,359.039,267.822z"/>
							</g>
						</g>
					</g>
					<g>
						<g>
							<path style="fill:#263238;" d="M364.16,273.374c-0.023-0.066,0.479-0.311,1.31-0.655c0.218-0.083,0.381-0.18,0.366-0.304
								c0.005-0.146-0.144-0.363-0.328-0.6c-0.368-0.509-0.741-1.025-1.132-1.565c-1.584-2.238-2.775-4.117-2.661-4.197
								c0.114-0.08,1.489,1.668,3.073,3.906c0.38,0.548,0.742,1.071,1.1,1.588c0.15,0.238,0.385,0.5,0.366,0.9
								c-0.014,0.201-0.155,0.381-0.293,0.459c-0.137,0.084-0.263,0.117-0.37,0.15C364.727,273.313,364.183,273.439,364.16,273.374z
								"/>
						</g>
					</g>
					<g>
						<path style="fill:#FFFFFF;" d="M361.621,275.047c-1.032-0.299,2.8,0.666,4.523,0.126c0,0-0.584,1.861-2.55,1.672
							C361.553,276.648,361.621,275.047,361.621,275.047z"/>
					</g>
					<g>
						<path style="fill:#A36957;" d="M367.409,283.758c0,0-3.851,1.346-8.717-0.191c0,0,3.086,3.98,9.152,1.8L367.409,283.758z"/>
					</g>
				</g>
			</g>
			<path style="fill:#263238;" d="M347.951,258.151c1.051,2.443,3.923,3.952,6.531,3.432c1.559-0.311,3.045-1.257,4.616-1.017
				c1.132,0.172,2.068,0.931,3.032,1.549s2.152,1.125,3.228,0.734c0.519-0.189,0.943-0.566,1.411-0.86
				c0.467-0.294,1.044-0.511,1.566-0.332c0.074-2.038-0.049-4.15-0.956-5.977c-0.906-1.827-2.753-3.307-4.792-3.254
				c-1.33,0.035-2.564,0.693-3.881,0.885c-1.085,0.158-2.188-0.005-3.278-0.123c-1.819-0.197-3.746-0.25-5.38,0.572
				c-1.634,0.822-2.828,2.781-2.216,4.505"/>
			<path style="fill:#263238;" d="M348.265,276.527c2.792,1.054,3.953-4.421,4.191-7.695c0.239-3.274-0.44-6.584-1.299-9.787
				c-0.281-1.049-0.643-2.183-1.507-2.797c-0.913-0.649-0.851,0.495-1.804-0.084c-1.87-1.136-4.1,0.536-5.159,1.475
				c-1.766,1.565-2.302,4.282-1.945,6.749c0.357,2.466,1.473,4.758,2.572,6.997c0.502,1.022,1.004,2.045,1.506,3.067
				c0.355,0.723,0.73,1.472,1.347,1.965C346.783,276.91,347.716,277.056,348.265,276.527"/>
			<g>
				<g>
					<path style="fill:#B78876;" d="M346.543,271.536c-0.165-0.491-0.686-0.783-1.183-0.635c-1.149,0.341-2.863,1.404-2.008,4.603
						c1.221,4.57,5.171,2.036,5.144,1.903C348.475,277.302,347.127,273.276,346.543,271.536z"/>
				</g>
				<g>
					<g>
						<path style="fill:#A36957;" d="M346.929,275.967c-0.024-0.009-0.065,0.077-0.183,0.175c-0.115,0.095-0.33,0.197-0.592,0.171
							c-0.53-0.048-1.142-0.706-1.384-1.524c-0.123-0.413-0.142-0.832-0.082-1.2c0.05-0.372,0.204-0.663,0.436-0.771
							c0.227-0.12,0.438-0.021,0.528,0.093c0.095,0.111,0.091,0.21,0.117,0.212c0.016,0.008,0.078-0.103-0.009-0.282
							c-0.043-0.086-0.126-0.179-0.256-0.238c-0.134-0.06-0.307-0.062-0.471,0.001c-0.346,0.118-0.577,0.527-0.642,0.931
							c-0.085,0.41-0.074,0.884,0.064,1.348c0.275,0.913,0.977,1.649,1.689,1.664c0.344-0.002,0.586-0.171,0.696-0.315
							C346.951,276.079,346.947,275.971,346.929,275.967z"/>
					</g>
				</g>
			</g>
			<g>
				<path style="fill:#263238;" d="M334.354,289.408c-0.024-0.012,0.078-0.153,0.106-0.452c0.031-0.289-0.059-0.772-0.467-1.158
					c-0.386-0.397-1.197-0.475-1.832,0.004c-0.659,0.438-0.913,1.475-0.514,2.388c0.381,0.91,1.393,1.628,2.542,1.854
					c0.576,0.109,1.209,0.086,1.783-0.126c0.576-0.205,1.062-0.649,1.251-1.249c0.372-1.245-0.343-2.667-1.186-3.849
					c-0.872-1.214-2.026-2.292-3.097-3.527c-1.071-1.22-1.992-2.652-2.273-4.221c-0.302-1.548-0.151-3.109,0.341-4.461
					c0.476-1.361,1.274-2.522,2.223-3.384c0.958-0.851,2.031-1.423,3.062-1.744c2.076-0.662,3.882-0.461,5.031-0.177
					c0.58,0.152,1.015,0.319,1.299,0.452c0.284,0.137,0.427,0.216,0.42,0.232c-0.02,0.048-0.615-0.246-1.763-0.486
					c-1.137-0.219-2.893-0.353-4.87,0.328c-0.982,0.329-1.993,0.896-2.887,1.713c-0.882,0.827-1.624,1.932-2.061,3.223
					c-0.454,1.283-0.583,2.757-0.294,4.201c0.27,1.46,1.119,2.784,2.168,3.983c1.044,1.207,2.21,2.298,3.117,3.57
					c0.454,0.634,0.834,1.308,1.102,2.028c0.251,0.718,0.37,1.519,0.126,2.267c-0.239,0.75-0.876,1.306-1.551,1.531
					c-0.677,0.239-1.381,0.25-2.023,0.12c-1.276-0.274-2.369-1.068-2.8-2.138c-0.439-1.046-0.109-2.273,0.687-2.765
					c0.748-0.533,1.714-0.402,2.141,0.088c0.442,0.466,0.497,1.006,0.43,1.318C334.497,289.293,334.354,289.408,334.354,289.408z"/>
			</g>
			<g>
				<path style="fill:#E8505B;" d="M348.789,278.84c0.036-0.049,0.449,0.551,0.096,1.524c-0.17,0.461-0.587,0.987-1.233,1.222
					c-0.63,0.24-1.438,0.216-2.119-0.194c-0.676-0.417-1.067-1.11-1.186-1.759c-0.127-0.661,0.033-1.27,0.257-1.7
					c0.475-0.876,1.086-1.108,1.103-1.057c0.058,0.066-0.438,0.404-0.768,1.21c-0.158,0.398-0.251,0.913-0.122,1.449
					c0.121,0.533,0.458,1.088,0.987,1.412c0.527,0.32,1.18,0.357,1.687,0.187c0.518-0.164,0.87-0.544,1.058-0.919
					C348.932,279.44,348.703,278.853,348.789,278.84z"/>
			</g>
			<g>
				<path style="fill:#E8505B;" d="M343.59,272.018c-0.09,0.107-0.653-0.243-1.037-0.936c-0.388-0.691-0.39-1.354-0.252-1.374
					c0.145-0.028,0.363,0.514,0.707,1.12C343.343,271.439,343.69,271.909,343.59,272.018z"/>
			</g>
		</g>
	</g>
</g>
<g id="Bonfire">
	<g>
		<g>
			<g>
				<polygon style="fill:#455A64;" points="450.02,417.706 447.793,409.129 518.132,390.868 521.443,396.737 				"/>
				<g>
					<path style="fill:#263238;" d="M520.678,396.504c0.003,0.018-0.25,0.082-0.736,0.189c-0.536,0.111-1.244,0.258-2.129,0.442
						c-1.907,0.379-4.573,0.907-7.842,1.556c-6.616,1.328-15.766,3.159-25.686,5.895c-4.96,1.373-9.624,2.885-13.816,4.402
						c-4.188,1.532-7.935,2.996-11.132,4.097c-3.193,1.108-5.823,1.875-7.661,2.322c-0.919,0.221-1.635,0.382-2.125,0.471
						c-0.489,0.094-0.747,0.136-0.751,0.118c-0.004-0.018,0.247-0.093,0.727-0.22c0.528-0.142,1.225-0.33,2.097-0.564
						c1.817-0.505,4.42-1.323,7.59-2.473c3.173-1.143,6.901-2.64,11.089-4.2c4.194-1.545,8.87-3.077,13.842-4.453
						c9.946-2.743,19.12-4.52,25.756-5.755c3.321-0.614,6.013-1.08,7.875-1.394c0.893-0.144,1.607-0.259,2.147-0.346
						C520.415,396.517,520.675,396.487,520.678,396.504z"/>
				</g>
				<g>
					<path style="fill:#263238;" d="M465.518,404.513c0.003-0.038,0.441-0.039,1.23-0.008c0.789,0.031,1.928,0.095,3.333,0.185
						l0.741,0.048l-0.678,0.32c-2.197,1.037-5.166,2.405-8.436,3.881c-3.487,1.573-6.655,2.971-8.959,3.959
						c-1.152,0.494-2.088,0.885-2.739,1.145c-0.652,0.26-1.019,0.388-1.033,0.355c-0.015-0.033,0.324-0.223,0.95-0.54
						c0.626-0.317,1.539-0.759,2.671-1.296c2.265-1.074,5.409-2.524,8.896-4.098c3.27-1.475,6.26-2.797,8.492-3.757l0.064,0.367
						c-1.401-0.138-2.536-0.259-3.319-0.355C465.948,404.622,465.515,404.551,465.518,404.513z"/>
				</g>
				<g>
					<path style="fill:#263238;" d="M519.602,392.953c0.012,0.013-0.101,0.132-0.328,0.349c-0.239,0.202-0.594,0.504-1.109,0.81
						c-1.015,0.629-2.663,1.278-4.782,1.566c-2.118,0.318-4.66,0.209-7.429,0.369c-2.771,0.154-5.739,0.946-8.786,1.975
						c-3.047,1.036-5.971,2.059-8.711,2.688c-2.73,0.66-5.235,1.039-7.344,1.264c-2.111,0.221-3.828,0.279-5.012,0.287
						c-0.593,0.005-1.053-0.006-1.364-0.021c-0.312-0.014-0.475-0.03-0.475-0.048c0-0.042,0.654-0.063,1.833-0.134
						c1.179-0.07,2.884-0.183,4.976-0.45c2.09-0.271,4.57-0.685,7.273-1.365c2.712-0.651,5.597-1.675,8.661-2.716
						c3.058-1.033,6.09-1.829,8.921-1.959c2.814-0.135,5.328,0.011,7.411-0.256c2.085-0.237,3.704-0.815,4.729-1.377
						C519.095,393.377,519.57,392.913,519.602,392.953z"/>
				</g>
			</g>
			<g>
				<polygon style="fill:#263238;" points="446.393,403.047 447.239,394.226 519.577,401.16 520.678,407.808 				"/>
				<g>
					<path style="fill:#455A64;" d="M520.039,407.327c-0.003,0.018-0.263-0.008-0.756-0.075c-0.542-0.079-1.257-0.184-2.152-0.314
						c-1.922-0.298-4.607-0.714-7.901-1.224c-6.671-1.019-15.894-2.432-26.152-3.258c-5.13-0.409-10.03-0.585-14.488-0.596
						c-4.459,0.005-8.482,0.097-11.862,0.037c-3.38-0.052-6.114-0.232-7.993-0.443c-0.94-0.107-1.667-0.201-2.158-0.286
						c-0.491-0.079-0.748-0.128-0.746-0.146c0.002-0.018,0.264-0.003,0.759,0.042c0.544,0.047,1.264,0.11,2.163,0.188
						c1.88,0.148,4.606,0.271,7.978,0.276c3.372,0.013,7.388-0.117,11.857-0.148c4.47-0.015,9.388,0.147,14.53,0.557
						c10.284,0.829,19.511,2.302,26.17,3.414c3.33,0.56,6.019,1.044,7.876,1.388c0.888,0.171,1.598,0.307,2.136,0.411
						C519.788,407.248,520.042,407.309,520.039,407.327z"/>
				</g>
				<g>
					<path style="fill:#455A64;" d="M465.473,395.96c0.016-0.035,0.428,0.115,1.159,0.414c0.73,0.299,1.779,0.749,3.068,1.315
						l0.68,0.299l-0.746,0.069c-2.419,0.222-5.677,0.491-9.255,0.757c-3.815,0.284-7.27,0.512-9.773,0.651
						c-1.251,0.069-2.265,0.117-2.966,0.138c-0.701,0.021-1.09,0.016-1.093-0.02c-0.003-0.036,0.381-0.099,1.078-0.182
						c0.697-0.083,1.706-0.186,2.954-0.303c2.496-0.233,5.947-0.519,9.761-0.803c3.578-0.266,6.84-0.483,9.265-0.622l-0.066,0.367
						c-1.269-0.609-2.294-1.112-2.997-1.47C465.839,396.21,465.457,395.995,465.473,395.96z"/>
				</g>
				<g>
					<path style="fill:#455A64;" d="M520.245,403.621c0.007,0.017-0.14,0.09-0.428,0.216c-0.294,0.108-0.731,0.27-1.32,0.381
						c-1.169,0.243-2.939,0.289-5.029-0.166c-2.099-0.427-4.45-1.4-7.106-2.197c-2.656-0.805-5.716-1.076-8.931-1.154
						c-3.217-0.07-6.315-0.111-9.105-0.458c-2.791-0.315-5.275-0.817-7.333-1.327c-2.059-0.515-3.692-1.049-4.807-1.447
						c-0.558-0.198-0.987-0.366-1.275-0.487c-0.288-0.12-0.436-0.191-0.43-0.208c0.014-0.039,0.636,0.165,1.768,0.502
						c1.132,0.338,2.773,0.815,4.829,1.281c2.057,0.461,4.529,0.922,7.3,1.209c2.771,0.318,5.832,0.343,9.067,0.414
						c3.227,0.077,6.349,0.367,9.053,1.215c2.69,0.837,5.002,1.835,7.05,2.298c2.04,0.491,3.76,0.503,4.914,0.326
						C519.623,403.846,520.227,403.574,520.245,403.621z"/>
				</g>
			</g>
			<g>
				<polygon style="fill:#E8505B;" points="472.687,368.452 467.4,361.402 467.4,340.504 472.687,347.05 472.687,354.478 
					476.968,344.28 474.701,335.971 474.701,319.353 478.478,332.446 480.996,329.677 483.246,343.903 483.246,364.927 				"/>
				<polygon style="opacity:0.2;" points="472.687,368.452 467.4,361.402 467.4,340.504 472.687,347.05 472.687,354.478 
					476.968,344.28 474.701,335.971 474.701,319.353 478.478,332.446 480.996,329.677 483.246,343.903 483.246,364.927 				"/>
				<polygon style="fill:#E8505B;" points="465.1,367.948 470.673,392.372 484.018,399.674 490.564,399.674 501.391,387.588 
					501.391,367.948 492.83,358.884 491.068,343.777 488.046,352.086 484.773,337.23 477.723,356.114 473.191,362.913 				"/>
				<polygon style="fill:#E8505B;" points="494.022,309.904 488.796,316.364 490.849,322.234 495.124,316.949 				"/>
			</g>
		</g>
		<g style="opacity:0.2;">
			<path style="fill:#FFFFFF;" d="M485.978,397.352c-1.604-2.189-3.262-4.507-3.594-7.2c-0.248-2.011,0.275-4.029,0.816-5.981
				c0.861-3.102,1.784-6.188,2.768-9.254c1.471,2.778,2.943,5.556,4.414,8.334c1.159,2.188,2.353,4.57,1.985,7.018
				c-0.265,1.76-1.308,3.291-2.323,4.754c-0.984,1.417-2.246,2.988-3.971,2.977"/>
		</g>
		<g style="opacity:0.2;">
			<path style="fill:#FFFFFF;" d="M484.672,399.151c-2.421-2.483-4.842-4.965-7.263-7.448c-0.871-0.893-1.772-1.836-2.126-3.032
				c-0.45-1.52,0.067-3.141,0.579-4.641c2.865-8.392,5.816-16.946,11.188-24c0.573,3.993,3.088,7.391,5.396,10.7
				c2.308,3.309,4.566,6.98,4.497,11.014c-0.046,2.685-1.126,5.229-1.731,7.845c-0.411,1.781-0.606,3.617-1.193,5.348
				c-0.587,1.731-1.648,3.405-3.292,4.205c-2.274,1.107-4.971,0.293-7.361-0.533"/>
		</g>
	</g>
</g>
<g id="Tree">
	<g>
		<g>
			<polygon style="fill:#455A64;" points="515.54,126.717 490.423,177.383 497.923,177.668 476.641,217.928 487.819,217.928 
				470.382,253.697 567.852,253.697 546.391,217.928 556.674,217.48 536.107,177.24 543.708,176.793 			"/>
			<g>
				<path style="fill:#263238;" d="M519.787,185.49c0.144,0.001-0.054,30.592-0.441,68.316c-0.388,37.738-0.818,68.319-0.962,68.317
					s0.054-30.585,0.441-68.322C519.212,216.076,519.643,185.488,519.787,185.49z"/>
			</g>
		</g>
		<g>
			<path style="fill:#263238;" d="M531.732,198.515c0.114,0.088-2.39,3.526-5.592,7.679c-3.203,4.154-5.891,7.45-6.005,7.362
				c-0.114-0.088,2.39-3.525,5.592-7.68C528.93,201.723,531.619,198.427,531.732,198.515z"/>
		</g>
		<g>
			<path style="fill:#263238;" d="M519.55,212.478c-0.088,0.113-2.563-1.667-5.526-3.977c-2.964-2.31-5.295-4.274-5.206-4.388
				s2.562,1.667,5.526,3.977C517.307,210.4,519.638,212.365,519.55,212.478z"/>
		</g>
		<g>
			<path style="fill:#263238;" d="M518.883,237.331c-0.051,0.054-0.744-0.513-1.85-1.444c-1.105-0.931-2.628-2.218-4.334-3.609
				c-1.708-1.391-3.276-2.623-4.41-3.517c-1.134-0.895-1.83-1.459-1.787-1.52c0.04-0.057,0.812,0.402,2.006,1.224
				c1.194,0.821,2.805,2.012,4.521,3.409c1.714,1.398,3.206,2.735,4.251,3.739C518.325,236.617,518.931,237.28,518.883,237.331z"/>
		</g>
		<g>
			<path style="fill:#263238;" d="M531.748,221.969c0.112,0.09-2.632,3.691-6.128,8.042c-3.497,4.352-6.422,7.806-6.534,7.716
				c-0.112-0.09,2.631-3.69,6.129-8.042C528.71,225.333,531.635,221.878,531.748,221.969z"/>
		</g>
	</g>
</g>
</svg>
